M48
; DRILL file {KiCad (6.0.0)} date Thu Jan  4 18:13:28 2024
; FORMAT={-:-/ absolute / inch / decimal}
; #@! TF.CreationDate,2024-01-04T18:13:28+01:00
; #@! TF.GenerationSoftware,Kicad,Pcbnew,(6.0.0)
; #@! TF.FileFunction,MixedPlating,1,4
FMAT,2
INCH
; #@! TA.AperFunction,Plated,PTH,ViaDrill
T1C0.0118
; #@! TA.AperFunction,Plated,PTH,ComponentDrill
T2C0.0157
; #@! TA.AperFunction,Plated,PTH,ComponentDrill
T3C0.0197
; #@! TA.AperFunction,Plated,PTH,ComponentDrill
T4C0.0236
; #@! TA.AperFunction,Plated,PTH,ComponentDrill
T5C0.0335
; #@! TA.AperFunction,Plated,PTH,ComponentDrill
T6C0.0394
; #@! TA.AperFunction,Plated,PTH,ComponentDrill
T7C0.0787
; #@! TA.AperFunction,Plated,PTH,ComponentDrill
T8C0.0866
; #@! TA.AperFunction,Plated,PTH,ComponentDrill
T9C0.1260
; #@! TA.AperFunction,NonPlated,NPTH,ComponentDrill
T10C0.1260
%
G90
G05
T1
X5.6378Y-4.5827
X5.6378Y-4.6929
X6.0551Y-4.8425
X6.0669Y-4.4528
X6.1339Y-4.4528
X6.185Y-4.8425
X6.2205Y-4.248
X6.2362Y-5.0039
X6.248Y-4.6024
X6.248Y-4.6535
X6.311Y-4.6024
X6.3228Y-4.9173
X6.3465Y-4.685
X6.3504Y-4.811
X6.3543Y-4.3543
X6.3543Y-4.4331
X6.378Y-4.6024
X6.378Y-5.2795
X6.3819Y-5.0906
X6.3858Y-3.9843
X6.3858Y-4.1535
X6.3906Y-4.7358
X6.4134Y-4.5079
X6.4173Y-4.8504
X6.4331Y-4.9291
X6.4606Y-4.5787
X6.5866Y-4.815
X6.5906Y-4.4764
X6.6181Y-4.9213
X6.626Y-4.5787
X6.7047Y-4.6811
X6.7205Y-3.9094
X6.7362Y-4.9213
X6.748Y-4.0197
X6.748Y-4.2717
X6.8031Y-3.9134
X6.8228Y-4.0197
X6.8228Y-4.1693
X6.8307Y-4.6772
X6.874Y-3.9646
X6.878Y-4.0591
X6.8937Y-4.1772
X6.9488Y-5.1614
X6.9724Y-4.2953
X6.9803Y-4.0197
X6.9843Y-4.3543
X6.9921Y-4.6378
X7.0315Y-4.2559
X7.0433Y-4.4331
X7.0906Y-4.3189
X7.0945Y-4.2559
X7.1142Y-4.6339
X7.1142Y-4.8701
X7.1535Y-4.311
X7.1575Y-4.3976
X7.1614Y-4.1063
X7.1929Y-4.2244
X7.1988Y-3.9114
X7.2028Y-3.9705
X7.2283Y-4.5315
X7.2283Y-4.6575
X7.248Y-5.0866
X7.2638Y-4.3543
X7.2795Y-5.1575
X7.3071Y-5.0866
X7.3386Y-4.9646
X7.3425Y-4.1614
X7.3701Y-4.4331
X7.4213Y-4.2323
X7.4331Y-4.1614
X7.5945Y-4.1774
X7.5945Y-4.2128
X7.5945Y-4.2522
X7.6654Y-5.0866
X7.8529Y-4.1732
X7.8529Y-4.2126
X7.8529Y-4.2522
X8.0157Y-4.3465
X8.0236Y-4.0118
X8.0315Y-4.1772
X8.1693Y-4.3425
T2
X4.4193Y-4.0748
X4.4232Y-5.2165
X4.4383Y-4.0289
X4.4383Y-4.1207
X4.4423Y-5.1706
X4.4423Y-5.2625
X4.4843Y-4.0098
X4.4843Y-4.1398
X4.4882Y-5.1516
X4.4882Y-5.2815
X4.5302Y-4.0289
X4.5302Y-4.1207
X4.5341Y-5.1706
X4.5341Y-5.2625
X4.5492Y-4.0748
X4.5531Y-5.2165
X8.0659Y-3.9774
X8.0659Y-4.0108
X8.0659Y-4.0443
X8.0659Y-4.0778
X8.0659Y-4.1112
X8.0659Y-4.1447
X8.0659Y-4.1781
X8.0659Y-4.2116
X8.1191Y-3.9774
X8.1191Y-4.0108
X8.1191Y-4.0443
X8.1191Y-4.0778
X8.1191Y-4.1112
X8.1191Y-4.1447
X8.1191Y-4.1781
X8.1191Y-4.2116
T3
X5.9685Y-4.6457
X5.9962Y-4.5789
X5.9962Y-4.7125
X6.063Y-4.5512
X6.063Y-4.7402
X6.1298Y-4.5789
X6.1298Y-4.7125
X6.1575Y-4.6457
X8.0551Y-4.6457
X8.0828Y-4.5789
X8.0828Y-4.7125
X8.1496Y-4.5512
X8.1496Y-4.7402
X8.2164Y-4.5789
X8.2164Y-4.7125
X8.2441Y-4.6457
T5
X7.424Y-4.0549
X7.524Y-4.0549
X7.624Y-4.0549
X7.824Y-4.0549
X7.924Y-4.0549
T6
X7.8143Y-5.1846
T7
X8.1214Y-5.035
X8.1214Y-5.3343
T8
X4.4843Y-4.0748
X4.4882Y-5.2165
T9
X6.063Y-4.6457
X8.1496Y-4.6457
T10
X6.5748Y-4.0157
X6.5748Y-5.2756
T4
X8.075Y-3.9242G85X8.1341Y-3.9242
G05
X8.075Y-4.2648G85X8.1341Y-4.2648
G05
X8.2219Y-3.9242G85X8.2533Y-3.9242
G05
X8.2219Y-4.2648G85X8.2533Y-4.2648
G05
T0
M30
