%TF.GenerationSoftware,KiCad,Pcbnew,(6.0.0)*%
%TF.CreationDate,2024-01-04T18:13:25+01:00*%
%TF.ProjectId,Differential_Probe_v1r1,44696666-6572-4656-9e74-69616c5f5072,rev?*%
%TF.SameCoordinates,Original*%
%TF.FileFunction,Copper,L2,Inr*%
%TF.FilePolarity,Positive*%
%FSLAX46Y46*%
G04 Gerber Fmt 4.6, Leading zero omitted, Abs format (unit mm)*
G04 Created by KiCad (PCBNEW (6.0.0)) date 2024-01-04 18:13:25*
%MOMM*%
%LPD*%
G01*
G04 APERTURE LIST*
G04 Aperture macros list*
%AMRoundRect*
0 Rectangle with rounded corners*
0 $1 Rounding radius*
0 $2 $3 $4 $5 $6 $7 $8 $9 X,Y pos of 4 corners*
0 Add a 4 corners polygon primitive as box body*
4,1,4,$2,$3,$4,$5,$6,$7,$8,$9,$2,$3,0*
0 Add four circle primitives for the rounded corners*
1,1,$1+$1,$2,$3*
1,1,$1+$1,$4,$5*
1,1,$1+$1,$6,$7*
1,1,$1+$1,$8,$9*
0 Add four rect primitives between the rounded corners*
20,1,$1+$1,$2,$3,$4,$5,0*
20,1,$1+$1,$4,$5,$6,$7,0*
20,1,$1+$1,$6,$7,$8,$9,0*
20,1,$1+$1,$8,$9,$2,$3,0*%
G04 Aperture macros list end*
%TA.AperFunction,ComponentPad*%
%ADD10C,6.400000*%
%TD*%
%TA.AperFunction,ComponentPad*%
%ADD11C,0.800000*%
%TD*%
%TA.AperFunction,ComponentPad*%
%ADD12C,0.700000*%
%TD*%
%TA.AperFunction,ComponentPad*%
%ADD13C,4.400000*%
%TD*%
%TA.AperFunction,ComponentPad*%
%ADD14RoundRect,0.400000X-0.400000X0.400000X-0.400000X-0.400000X0.400000X-0.400000X0.400000X0.400000X0*%
%TD*%
%TA.AperFunction,ComponentPad*%
%ADD15C,3.200000*%
%TD*%
%TA.AperFunction,ComponentPad*%
%ADD16O,2.400000X0.900000*%
%TD*%
%TA.AperFunction,ComponentPad*%
%ADD17O,1.700000X0.900000*%
%TD*%
%TA.AperFunction,ComponentPad*%
%ADD18R,1.850000X1.850000*%
%TD*%
%TA.AperFunction,ComponentPad*%
%ADD19C,1.850000*%
%TD*%
%TA.AperFunction,ViaPad*%
%ADD20C,0.600000*%
%TD*%
G04 APERTURE END LIST*
D10*
%TO.N,GND*%
%TO.C,H4*%
X207000000Y-118000000D03*
D11*
X209400000Y-118000000D03*
X208697056Y-119697056D03*
X207000000Y-120400000D03*
X205302944Y-119697056D03*
X204600000Y-118000000D03*
X205302944Y-116302944D03*
X207000000Y-115600000D03*
X208697056Y-116302944D03*
%TD*%
D12*
%TO.N,Net-(C8-Pad1)*%
%TO.C,J1*%
X112733274Y-104666726D03*
X113900000Y-101850000D03*
X112250000Y-103500000D03*
X115066726Y-102333274D03*
X115550000Y-103500000D03*
X115066726Y-104666726D03*
D13*
X113900000Y-103500000D03*
D12*
X113900000Y-105150000D03*
X112733274Y-102333274D03*
%TD*%
D14*
%TO.N,Net-(J3-Pad1)*%
%TO.C,J3*%
X198482500Y-131690000D03*
D15*
%TO.N,GND*%
X206282500Y-127890000D03*
X206282500Y-135490000D03*
%TD*%
D16*
%TO.N,GND_USB*%
%TO.C,P1*%
X205855000Y-99675000D03*
X205855000Y-108325000D03*
D17*
X209235000Y-99675000D03*
X209235000Y-108325000D03*
D12*
X206225000Y-106975000D03*
%TO.N,+5V_USB*%
X206225000Y-106125000D03*
%TO.N,N/C*%
X206225000Y-105275000D03*
X206225000Y-104425000D03*
X206225000Y-103575000D03*
%TO.N,unconnected-(P1-PadB5)*%
X206225000Y-102725000D03*
%TO.N,+5V_USB*%
X206225000Y-101875000D03*
%TO.N,GND_USB*%
X206225000Y-101025000D03*
X204875000Y-101025000D03*
%TO.N,+5V_USB*%
X204875000Y-101875000D03*
%TO.N,N/C*%
X204875000Y-102725000D03*
%TO.N,unconnected-(P1-PadA7)*%
X204875000Y-103575000D03*
%TO.N,unconnected-(P1-PadA6)*%
X204875000Y-104425000D03*
%TO.N,unconnected-(P1-PadA5)*%
X204875000Y-105275000D03*
%TO.N,+5V_USB*%
X204875000Y-106125000D03*
%TO.N,GND_USB*%
X204875000Y-106975000D03*
%TD*%
D11*
%TO.N,GND*%
%TO.C,H3*%
X154000000Y-115600000D03*
X152302944Y-119697056D03*
D10*
X154000000Y-118000000D03*
D11*
X155697056Y-119697056D03*
X154000000Y-120400000D03*
X151600000Y-118000000D03*
X155697056Y-116302944D03*
X156400000Y-118000000D03*
X152302944Y-116302944D03*
%TD*%
D12*
%TO.N,Net-(C7-Pad1)*%
%TO.C,J2*%
X112350000Y-132500000D03*
X115166726Y-131333274D03*
X114000000Y-130850000D03*
X112833274Y-133666726D03*
D13*
X114000000Y-132500000D03*
D12*
X114000000Y-134150000D03*
X115650000Y-132500000D03*
X115166726Y-133666726D03*
X112833274Y-131333274D03*
%TD*%
D18*
%TO.N,Net-(C2-Pad1)*%
%TO.C,PS1*%
X201270000Y-102995000D03*
D19*
%TO.N,GND_USB*%
X198730000Y-102995000D03*
%TO.N,-9V*%
X193650000Y-102995000D03*
%TO.N,GND*%
X191110000Y-102995000D03*
%TO.N,+9V*%
X188570000Y-102995000D03*
%TD*%
D20*
%TO.N,+5V_USB*%
X204000000Y-106100000D03*
X203800000Y-101900000D03*
X203600000Y-110400000D03*
%TO.N,Net-(C32-Pad1)*%
X161200000Y-119000000D03*
X163400000Y-125200000D03*
%TO.N,Net-(C31-Pad1)*%
X164100000Y-116300000D03*
X160300000Y-116900000D03*
%TO.N,GND*%
X177300000Y-102100000D03*
%TO.N,+6V*%
X174600000Y-100700000D03*
X174700000Y-103100000D03*
X171400000Y-102100000D03*
X173300000Y-102100000D03*
%TO.N,GND*%
X175100000Y-106100000D03*
%TO.N,-6V*%
X181800000Y-111700000D03*
X180200000Y-108100000D03*
X180100000Y-109700000D03*
X181700000Y-109500000D03*
%TO.N,+6V*%
X167400000Y-113700000D03*
%TO.N,-6V*%
X162900000Y-114500000D03*
X177600000Y-117800000D03*
%TO.N,+6V*%
X161400000Y-112600000D03*
%TO.N,-6V*%
X161400000Y-110600000D03*
%TO.N,+6V*%
X160600000Y-124900000D03*
%TO.N,-6V*%
X163000000Y-123200000D03*
X161300000Y-122200000D03*
%TO.N,+6V*%
X167300000Y-122300000D03*
X173500000Y-118800000D03*
X180700000Y-123700000D03*
X183600000Y-118300000D03*
%TO.N,-6V*%
X186400000Y-126100000D03*
%TO.N,+6V*%
X176500000Y-131100000D03*
%TO.N,-6V*%
X184900000Y-131000000D03*
%TO.N,+6V*%
X162100000Y-129300000D03*
%TO.N,-6V*%
X162000000Y-134100000D03*
%TO.N,+6V*%
X162200000Y-105500000D03*
%TO.N,-6V*%
X162200000Y-101200000D03*
%TO.N,GND_USB*%
X199462500Y-107000000D03*
X199462500Y-108005000D03*
X207500000Y-110300000D03*
X199462500Y-106000000D03*
%TO.N,GND*%
X183600000Y-115100000D03*
X184500000Y-110600000D03*
X170700000Y-99300000D03*
X153800000Y-123000000D03*
X182950000Y-100850000D03*
X177100000Y-109100000D03*
X180700000Y-117700000D03*
X168300000Y-116300000D03*
X192900000Y-108005000D03*
X192900000Y-106105000D03*
X188500000Y-107500000D03*
X158700000Y-116900000D03*
X158700000Y-118200000D03*
X170300000Y-118900000D03*
X184100000Y-129200000D03*
X182700000Y-107300000D03*
X182850000Y-99350000D03*
X154100000Y-113100000D03*
X178600000Y-108100000D03*
X168100000Y-125000000D03*
X158400000Y-127100000D03*
X192900000Y-107005000D03*
X158000000Y-107900000D03*
X177400000Y-110600000D03*
X162000000Y-116900000D03*
X187200000Y-112600000D03*
X172800000Y-99400000D03*
X186500000Y-105700000D03*
X162320000Y-120290000D03*
X155800000Y-113100000D03*
X143200000Y-116400000D03*
X194700000Y-129200000D03*
X157100000Y-123000000D03*
X188800000Y-105700000D03*
X178900000Y-112600000D03*
X143200000Y-119200000D03*
X181900000Y-104300000D03*
X185600000Y-129200000D03*
X173300000Y-105900000D03*
X171400000Y-108500000D03*
X171100000Y-125000000D03*
%TD*%
%TA.AperFunction,Conductor*%
%TO.N,GND_USB*%
G36*
X204778351Y-98519962D02*
G01*
X204832889Y-98574500D01*
X204852851Y-98649000D01*
X204832889Y-98723500D01*
X204778351Y-98778038D01*
X204748408Y-98791182D01*
X204736028Y-98795062D01*
X204722224Y-98800978D01*
X204566628Y-98887226D01*
X204554294Y-98895798D01*
X204419220Y-99011571D01*
X204408862Y-99022448D01*
X204299826Y-99163017D01*
X204291867Y-99175754D01*
X204213322Y-99335379D01*
X204208088Y-99349449D01*
X204193353Y-99406019D01*
X204193465Y-99422033D01*
X204198687Y-99425000D01*
X207505674Y-99425000D01*
X207521145Y-99420855D01*
X207521783Y-99418474D01*
X207520745Y-99412646D01*
X207465862Y-99263478D01*
X207459282Y-99249988D01*
X207365538Y-99098793D01*
X207356369Y-99086886D01*
X207234136Y-98957629D01*
X207222771Y-98947818D01*
X207077038Y-98845776D01*
X207063929Y-98838450D01*
X206942136Y-98785745D01*
X206881691Y-98737837D01*
X206853298Y-98666125D01*
X206864566Y-98589825D01*
X206912474Y-98529380D01*
X206984186Y-98500987D01*
X207001311Y-98500000D01*
X208433851Y-98500000D01*
X208508351Y-98519962D01*
X208562889Y-98574500D01*
X208582851Y-98649000D01*
X208562889Y-98723500D01*
X208508351Y-98778038D01*
X208478408Y-98791182D01*
X208466028Y-98795062D01*
X208452224Y-98800978D01*
X208296628Y-98887226D01*
X208284294Y-98895798D01*
X208149220Y-99011571D01*
X208138862Y-99022448D01*
X208029826Y-99163017D01*
X208021867Y-99175754D01*
X207943322Y-99335379D01*
X207938088Y-99349449D01*
X207923353Y-99406019D01*
X207923465Y-99422033D01*
X207928687Y-99425000D01*
X209336000Y-99425000D01*
X209410500Y-99444962D01*
X209465038Y-99499500D01*
X209485000Y-99574000D01*
X209485000Y-100605384D01*
X209489145Y-100620855D01*
X209504616Y-100625000D01*
X209679458Y-100625000D01*
X209686982Y-100624619D01*
X209819500Y-100611158D01*
X209834210Y-100608138D01*
X210003972Y-100554938D01*
X210017776Y-100549022D01*
X210173372Y-100462774D01*
X210185711Y-100454198D01*
X210254035Y-100395638D01*
X210323591Y-100362312D01*
X210400492Y-100368229D01*
X210464131Y-100411804D01*
X210497457Y-100481360D01*
X210500000Y-100508769D01*
X210500000Y-107485777D01*
X210480038Y-107560277D01*
X210425500Y-107614815D01*
X210351000Y-107634777D01*
X210276500Y-107614815D01*
X210253639Y-107598568D01*
X210252771Y-107597819D01*
X210107038Y-107495776D01*
X210093929Y-107488450D01*
X209930662Y-107417798D01*
X209916343Y-107413255D01*
X209740423Y-107376504D01*
X209729430Y-107375076D01*
X209726531Y-107375000D01*
X209504616Y-107375000D01*
X209489145Y-107379145D01*
X209485000Y-107394616D01*
X209485000Y-109255384D01*
X209489145Y-109270855D01*
X209504616Y-109275000D01*
X209679458Y-109275000D01*
X209686982Y-109274619D01*
X209819500Y-109261158D01*
X209834210Y-109258138D01*
X210003972Y-109204938D01*
X210017776Y-109199022D01*
X210173372Y-109112774D01*
X210185711Y-109104198D01*
X210254035Y-109045638D01*
X210323591Y-109012312D01*
X210400492Y-109018229D01*
X210464131Y-109061804D01*
X210497457Y-109131360D01*
X210500000Y-109158769D01*
X210500000Y-110259502D01*
X210480038Y-110334002D01*
X210456359Y-110364861D01*
X210317255Y-110503965D01*
X210301188Y-110517887D01*
X210089812Y-110676121D01*
X210071928Y-110687614D01*
X209914067Y-110773813D01*
X209840184Y-110814157D01*
X209820852Y-110822985D01*
X209746019Y-110850897D01*
X209573447Y-110915263D01*
X209553055Y-110921251D01*
X209295030Y-110977381D01*
X209274004Y-110980403D01*
X209010072Y-110999280D01*
X209005313Y-110999620D01*
X208994684Y-111000000D01*
X204440373Y-111000000D01*
X204365873Y-110980038D01*
X204311335Y-110925500D01*
X204291373Y-110851000D01*
X204309510Y-110783310D01*
X204308066Y-110782568D01*
X204311874Y-110775160D01*
X204316483Y-110768222D01*
X204325298Y-110745018D01*
X204377298Y-110608125D01*
X204380257Y-110600336D01*
X204405251Y-110422493D01*
X204405565Y-110400000D01*
X204404304Y-110388753D01*
X204395237Y-110307923D01*
X204385546Y-110221528D01*
X204326485Y-110051927D01*
X204231316Y-109899625D01*
X204104770Y-109772193D01*
X204097740Y-109767732D01*
X204097738Y-109767730D01*
X203960169Y-109680426D01*
X203960167Y-109680425D01*
X203953136Y-109675963D01*
X203931948Y-109668418D01*
X203791800Y-109618514D01*
X203791801Y-109618514D01*
X203783951Y-109615719D01*
X203775680Y-109614733D01*
X203775677Y-109614732D01*
X203673368Y-109602533D01*
X203605624Y-109594455D01*
X203597346Y-109595325D01*
X203597344Y-109595325D01*
X203530547Y-109602346D01*
X203427017Y-109613227D01*
X203419139Y-109615909D01*
X203419134Y-109615910D01*
X203315754Y-109651104D01*
X203257007Y-109671103D01*
X203104045Y-109765206D01*
X203098096Y-109771032D01*
X203098093Y-109771034D01*
X202981682Y-109885032D01*
X202975732Y-109890859D01*
X202971221Y-109897858D01*
X202971219Y-109897861D01*
X202965530Y-109906689D01*
X202878446Y-110041817D01*
X202875596Y-110049646D01*
X202875596Y-110049647D01*
X202871903Y-110059795D01*
X202817022Y-110210578D01*
X202794514Y-110388753D01*
X202795326Y-110397035D01*
X202795326Y-110397039D01*
X202811226Y-110559199D01*
X202812039Y-110567486D01*
X202814667Y-110575385D01*
X202814667Y-110575387D01*
X202852000Y-110687614D01*
X202868726Y-110737896D01*
X202890480Y-110773816D01*
X202911997Y-110847879D01*
X202893600Y-110922781D01*
X202840217Y-110978449D01*
X202763030Y-111000000D01*
X200833305Y-111000000D01*
X200823560Y-110999681D01*
X200820353Y-110999471D01*
X200577114Y-110983528D01*
X200557804Y-110980986D01*
X200375091Y-110944642D01*
X200320372Y-110933758D01*
X200301547Y-110928714D01*
X200092430Y-110857729D01*
X200072303Y-110850897D01*
X200054302Y-110843440D01*
X199837180Y-110736367D01*
X199820314Y-110726630D01*
X199681400Y-110633811D01*
X199619025Y-110592133D01*
X199603562Y-110580268D01*
X199417880Y-110417429D01*
X199410764Y-110410764D01*
X198589236Y-109589236D01*
X198582571Y-109582120D01*
X198419732Y-109396438D01*
X198407867Y-109380975D01*
X198343491Y-109284630D01*
X198273370Y-109179686D01*
X198263633Y-109162820D01*
X198156560Y-108945698D01*
X198149103Y-108927696D01*
X198071286Y-108698453D01*
X198066242Y-108679628D01*
X198046728Y-108581526D01*
X204188217Y-108581526D01*
X204189255Y-108587354D01*
X204244138Y-108736522D01*
X204250718Y-108750012D01*
X204344462Y-108901207D01*
X204353631Y-108913114D01*
X204475864Y-109042371D01*
X204487229Y-109052182D01*
X204632962Y-109154224D01*
X204646071Y-109161550D01*
X204809338Y-109232202D01*
X204823657Y-109236745D01*
X204999577Y-109273496D01*
X205010570Y-109274924D01*
X205013468Y-109275000D01*
X205585384Y-109275000D01*
X205600855Y-109270855D01*
X205605000Y-109255384D01*
X206105000Y-109255384D01*
X206109145Y-109270855D01*
X206124616Y-109275000D01*
X206649458Y-109275000D01*
X206656982Y-109274619D01*
X206789500Y-109261158D01*
X206804210Y-109258138D01*
X206973972Y-109204938D01*
X206987776Y-109199022D01*
X207143372Y-109112774D01*
X207155706Y-109104202D01*
X207290780Y-108988429D01*
X207301138Y-108977552D01*
X207410174Y-108836983D01*
X207418133Y-108824246D01*
X207496678Y-108664621D01*
X207501912Y-108650551D01*
X207516647Y-108593981D01*
X207516560Y-108581526D01*
X207918217Y-108581526D01*
X207919255Y-108587354D01*
X207974138Y-108736522D01*
X207980718Y-108750012D01*
X208074462Y-108901207D01*
X208083631Y-108913114D01*
X208205864Y-109042371D01*
X208217229Y-109052182D01*
X208362962Y-109154224D01*
X208376071Y-109161550D01*
X208539338Y-109232202D01*
X208553657Y-109236745D01*
X208729577Y-109273496D01*
X208740570Y-109274924D01*
X208743468Y-109275000D01*
X208965384Y-109275000D01*
X208980855Y-109270855D01*
X208985000Y-109255384D01*
X208985000Y-108594616D01*
X208980855Y-108579145D01*
X208965384Y-108575000D01*
X207934326Y-108575000D01*
X207918855Y-108579145D01*
X207918217Y-108581526D01*
X207516560Y-108581526D01*
X207516535Y-108577967D01*
X207511313Y-108575000D01*
X206124616Y-108575000D01*
X206109145Y-108579145D01*
X206105000Y-108594616D01*
X206105000Y-109255384D01*
X205605000Y-109255384D01*
X205605000Y-108594616D01*
X205600855Y-108579145D01*
X205585384Y-108575000D01*
X204204326Y-108575000D01*
X204188855Y-108579145D01*
X204188217Y-108581526D01*
X198046728Y-108581526D01*
X198019014Y-108442196D01*
X198016471Y-108422881D01*
X198000319Y-108176440D01*
X198000000Y-108166695D01*
X198000000Y-104458075D01*
X198019962Y-104383575D01*
X198074500Y-104329037D01*
X198149000Y-104309075D01*
X198202154Y-104318878D01*
X198325371Y-104365930D01*
X198337067Y-104369328D01*
X198554704Y-104413606D01*
X198566807Y-104415049D01*
X198788747Y-104423188D01*
X198800938Y-104422634D01*
X199021219Y-104394416D01*
X199033152Y-104391879D01*
X199245870Y-104328060D01*
X199257224Y-104323611D01*
X199456673Y-104225902D01*
X199467139Y-104219663D01*
X199647951Y-104090691D01*
X199658464Y-104081807D01*
X199728250Y-104048966D01*
X199805108Y-104055419D01*
X199868443Y-104099436D01*
X199894157Y-104143307D01*
X199897565Y-104152396D01*
X199901474Y-104162824D01*
X199907840Y-104171318D01*
X199964709Y-104247197D01*
X199987454Y-104277546D01*
X200102176Y-104363526D01*
X200112114Y-104367252D01*
X200112115Y-104367252D01*
X200177273Y-104391678D01*
X200236420Y-104413851D01*
X200245705Y-104414860D01*
X200245706Y-104414860D01*
X200264925Y-104416948D01*
X200297623Y-104420500D01*
X200301662Y-104420500D01*
X201271446Y-104420499D01*
X202242376Y-104420499D01*
X202272416Y-104417236D01*
X202294294Y-104414860D01*
X202294297Y-104414859D01*
X202303580Y-104413851D01*
X202437824Y-104363526D01*
X202552546Y-104277546D01*
X202575292Y-104247197D01*
X202632160Y-104171318D01*
X202638526Y-104162824D01*
X202645843Y-104143307D01*
X202675848Y-104063267D01*
X202688851Y-104028580D01*
X202695500Y-103967377D01*
X202695499Y-102022624D01*
X202688851Y-101961420D01*
X202661610Y-101888753D01*
X202994514Y-101888753D01*
X202995326Y-101897035D01*
X202995326Y-101897039D01*
X203007640Y-102022623D01*
X203012039Y-102067486D01*
X203068726Y-102237896D01*
X203161759Y-102391512D01*
X203286514Y-102520699D01*
X203293483Y-102525259D01*
X203293485Y-102525261D01*
X203327007Y-102547197D01*
X203436789Y-102619036D01*
X203605116Y-102681636D01*
X203613371Y-102682737D01*
X203613373Y-102682738D01*
X203774875Y-102704287D01*
X203774879Y-102704287D01*
X203783130Y-102705388D01*
X203869203Y-102697555D01*
X203945205Y-102710683D01*
X204004461Y-102760054D01*
X204030890Y-102830367D01*
X204038503Y-102902803D01*
X204093750Y-103072835D01*
X204097654Y-103079597D01*
X204100831Y-103086733D01*
X204098566Y-103087741D01*
X204115251Y-103149985D01*
X204098565Y-103212258D01*
X204100831Y-103213267D01*
X204097654Y-103220403D01*
X204093750Y-103227165D01*
X204038503Y-103397197D01*
X204019815Y-103575000D01*
X204038503Y-103752803D01*
X204093750Y-103922835D01*
X204097654Y-103929597D01*
X204100831Y-103936733D01*
X204098566Y-103937741D01*
X204115251Y-103999985D01*
X204098565Y-104062258D01*
X204100831Y-104063267D01*
X204097654Y-104070403D01*
X204093750Y-104077165D01*
X204038503Y-104247197D01*
X204037687Y-104254957D01*
X204037687Y-104254959D01*
X204021331Y-104410572D01*
X204019815Y-104425000D01*
X204038503Y-104602803D01*
X204093750Y-104772835D01*
X204097654Y-104779597D01*
X204100831Y-104786733D01*
X204098566Y-104787741D01*
X204115251Y-104849985D01*
X204098565Y-104912258D01*
X204100831Y-104913267D01*
X204097654Y-104920403D01*
X204093750Y-104927165D01*
X204038503Y-105097197D01*
X204037687Y-105104957D01*
X204037687Y-105104959D01*
X204030518Y-105173167D01*
X204002877Y-105245172D01*
X203942937Y-105293710D01*
X203897909Y-105305776D01*
X203885119Y-105307120D01*
X203827017Y-105313227D01*
X203819139Y-105315909D01*
X203819134Y-105315910D01*
X203715754Y-105351104D01*
X203657007Y-105371103D01*
X203649909Y-105375470D01*
X203512137Y-105460228D01*
X203504045Y-105465206D01*
X203498096Y-105471032D01*
X203498093Y-105471034D01*
X203381682Y-105585032D01*
X203375732Y-105590859D01*
X203371221Y-105597858D01*
X203371219Y-105597861D01*
X203346168Y-105636733D01*
X203278446Y-105741817D01*
X203217022Y-105910578D01*
X203194514Y-106088753D01*
X203195326Y-106097035D01*
X203195326Y-106097039D01*
X203198068Y-106125000D01*
X203212039Y-106267486D01*
X203268726Y-106437896D01*
X203361759Y-106591512D01*
X203367547Y-106597505D01*
X203367548Y-106597507D01*
X203396672Y-106627665D01*
X203486514Y-106720699D01*
X203636789Y-106819036D01*
X203805116Y-106881636D01*
X203813371Y-106882737D01*
X203813373Y-106882738D01*
X203861146Y-106889112D01*
X203897204Y-106893923D01*
X203968409Y-106923563D01*
X204015255Y-106984834D01*
X204025682Y-107026039D01*
X204038179Y-107144933D01*
X204041409Y-107160127D01*
X204091795Y-107315199D01*
X204098115Y-107329395D01*
X204113538Y-107356109D01*
X204124865Y-107367436D01*
X204130527Y-107365919D01*
X204510136Y-106986311D01*
X204576931Y-106947747D01*
X204646474Y-106945926D01*
X204785609Y-106975500D01*
X204868335Y-106975500D01*
X204942835Y-106995462D01*
X204997373Y-107050000D01*
X205017335Y-107124500D01*
X204997373Y-107199000D01*
X204973694Y-107229859D01*
X204514349Y-107689205D01*
X204447554Y-107727769D01*
X204405899Y-107727769D01*
X204405899Y-107731062D01*
X204368696Y-107731062D01*
X204359099Y-107736603D01*
X204299826Y-107813017D01*
X204291867Y-107825754D01*
X204213322Y-107985379D01*
X204208088Y-107999449D01*
X204193353Y-108056019D01*
X204193465Y-108072033D01*
X204198687Y-108075000D01*
X205585384Y-108075000D01*
X205600855Y-108070855D01*
X205605000Y-108055384D01*
X205605000Y-107484000D01*
X205624962Y-107409500D01*
X205679500Y-107354962D01*
X205754000Y-107335000D01*
X205956000Y-107335000D01*
X206030500Y-107354962D01*
X206085038Y-107409500D01*
X206105000Y-107484000D01*
X206105000Y-108055384D01*
X206109145Y-108070855D01*
X206124616Y-108075000D01*
X207505674Y-108075000D01*
X207521145Y-108070855D01*
X207521783Y-108068474D01*
X207520745Y-108062646D01*
X207518307Y-108056019D01*
X207923353Y-108056019D01*
X207923465Y-108072033D01*
X207928687Y-108075000D01*
X208965384Y-108075000D01*
X208980855Y-108070855D01*
X208985000Y-108055384D01*
X208985000Y-107394616D01*
X208980855Y-107379145D01*
X208965384Y-107375000D01*
X208790542Y-107375000D01*
X208783018Y-107375381D01*
X208650500Y-107388842D01*
X208635790Y-107391862D01*
X208466028Y-107445062D01*
X208452224Y-107450978D01*
X208296628Y-107537226D01*
X208284294Y-107545798D01*
X208149220Y-107661571D01*
X208138862Y-107672448D01*
X208029826Y-107813017D01*
X208021867Y-107825754D01*
X207943322Y-107985379D01*
X207938088Y-107999449D01*
X207923353Y-108056019D01*
X207518307Y-108056019D01*
X207465862Y-107913478D01*
X207459282Y-107899988D01*
X207365538Y-107748793D01*
X207356369Y-107736886D01*
X207234136Y-107607629D01*
X207222771Y-107597818D01*
X207077038Y-107495776D01*
X207075975Y-107495182D01*
X207075422Y-107494645D01*
X207070857Y-107491448D01*
X207071374Y-107490709D01*
X207020676Y-107441416D01*
X206999670Y-107367204D01*
X207006948Y-107319067D01*
X207058592Y-107160124D01*
X207061821Y-107144934D01*
X207078866Y-106982764D01*
X207078866Y-106967236D01*
X207061821Y-106805066D01*
X207058591Y-106789873D01*
X207008205Y-106634801D01*
X206998709Y-106613470D01*
X207001052Y-106612427D01*
X206984461Y-106550485D01*
X207001291Y-106487678D01*
X206999169Y-106486733D01*
X207002346Y-106479597D01*
X207006250Y-106472835D01*
X207061497Y-106302803D01*
X207080185Y-106125000D01*
X207061497Y-105947197D01*
X207006250Y-105777165D01*
X207002346Y-105770403D01*
X206999169Y-105763267D01*
X207001434Y-105762259D01*
X206984749Y-105700015D01*
X207001435Y-105637742D01*
X206999169Y-105636733D01*
X207002346Y-105629597D01*
X207006250Y-105622835D01*
X207061497Y-105452803D01*
X207078219Y-105293710D01*
X207079369Y-105282764D01*
X207080185Y-105275000D01*
X207061497Y-105097197D01*
X207006250Y-104927165D01*
X207002346Y-104920403D01*
X206999169Y-104913267D01*
X207001434Y-104912259D01*
X206984749Y-104850015D01*
X207001435Y-104787742D01*
X206999169Y-104786733D01*
X207002346Y-104779597D01*
X207006250Y-104772835D01*
X207061497Y-104602803D01*
X207080185Y-104425000D01*
X207078669Y-104410572D01*
X207062313Y-104254959D01*
X207062313Y-104254957D01*
X207061497Y-104247197D01*
X207006250Y-104077165D01*
X207002346Y-104070403D01*
X206999169Y-104063267D01*
X207001434Y-104062259D01*
X206984749Y-104000015D01*
X207001435Y-103937742D01*
X206999169Y-103936733D01*
X207002346Y-103929597D01*
X207006250Y-103922835D01*
X207061497Y-103752803D01*
X207080185Y-103575000D01*
X207061497Y-103397197D01*
X207006250Y-103227165D01*
X207002346Y-103220403D01*
X206999169Y-103213267D01*
X207001434Y-103212259D01*
X206984749Y-103150015D01*
X207001435Y-103087742D01*
X206999169Y-103086733D01*
X207002346Y-103079597D01*
X207006250Y-103072835D01*
X207061497Y-102902803D01*
X207080185Y-102725000D01*
X207061497Y-102547197D01*
X207006250Y-102377165D01*
X207002346Y-102370403D01*
X206999169Y-102363267D01*
X207001434Y-102362259D01*
X206984749Y-102300015D01*
X207001435Y-102237742D01*
X206999169Y-102236733D01*
X207002346Y-102229597D01*
X207006250Y-102222835D01*
X207061497Y-102052803D01*
X207065090Y-102018623D01*
X207079369Y-101882764D01*
X207080185Y-101875000D01*
X207076203Y-101837115D01*
X207062313Y-101704959D01*
X207062313Y-101704957D01*
X207061497Y-101697197D01*
X207006250Y-101527165D01*
X207002346Y-101520403D01*
X206999169Y-101513267D01*
X207001292Y-101512322D01*
X206984461Y-101449489D01*
X207001051Y-101387573D01*
X206998709Y-101386530D01*
X207008205Y-101365199D01*
X207058591Y-101210127D01*
X207061821Y-101194934D01*
X207078866Y-101032764D01*
X207078866Y-101017236D01*
X207061821Y-100855066D01*
X207058591Y-100839873D01*
X207005791Y-100677370D01*
X207008788Y-100676396D01*
X206999157Y-100615235D01*
X207026862Y-100543254D01*
X207075091Y-100500623D01*
X207143372Y-100462774D01*
X207155706Y-100454202D01*
X207290780Y-100338429D01*
X207301138Y-100327552D01*
X207410174Y-100186983D01*
X207418133Y-100174246D01*
X207496678Y-100014621D01*
X207501912Y-100000551D01*
X207516647Y-99943981D01*
X207516560Y-99931526D01*
X207918217Y-99931526D01*
X207919255Y-99937354D01*
X207974138Y-100086522D01*
X207980718Y-100100012D01*
X208074462Y-100251207D01*
X208083631Y-100263114D01*
X208205864Y-100392371D01*
X208217229Y-100402182D01*
X208362962Y-100504224D01*
X208376071Y-100511550D01*
X208539338Y-100582202D01*
X208553657Y-100586745D01*
X208729577Y-100623496D01*
X208740570Y-100624924D01*
X208743468Y-100625000D01*
X208965384Y-100625000D01*
X208980855Y-100620855D01*
X208985000Y-100605384D01*
X208985000Y-99944616D01*
X208980855Y-99929145D01*
X208965384Y-99925000D01*
X207934326Y-99925000D01*
X207918855Y-99929145D01*
X207918217Y-99931526D01*
X207516560Y-99931526D01*
X207516535Y-99927967D01*
X207511313Y-99925000D01*
X206124616Y-99925000D01*
X206109145Y-99929145D01*
X206105000Y-99944616D01*
X206105000Y-100516000D01*
X206085038Y-100590500D01*
X206030500Y-100645038D01*
X205956000Y-100665000D01*
X205754000Y-100665000D01*
X205679500Y-100645038D01*
X205624962Y-100590500D01*
X205605000Y-100516000D01*
X205605000Y-99944616D01*
X205600855Y-99929145D01*
X205585384Y-99925000D01*
X204204326Y-99925000D01*
X204188855Y-99929145D01*
X204188217Y-99931526D01*
X204189255Y-99937354D01*
X204244138Y-100086522D01*
X204250718Y-100100012D01*
X204344467Y-100251214D01*
X204352646Y-100261835D01*
X204367092Y-100270723D01*
X204392881Y-100271443D01*
X204410808Y-100266907D01*
X204485022Y-100287907D01*
X204514087Y-100310533D01*
X204973694Y-100770141D01*
X205012258Y-100836936D01*
X205012258Y-100914064D01*
X204973694Y-100980859D01*
X204906899Y-101019423D01*
X204868335Y-101024500D01*
X204785609Y-101024500D01*
X204646474Y-101054074D01*
X204569451Y-101050037D01*
X204510136Y-101013689D01*
X204137218Y-100640772D01*
X204123347Y-100632764D01*
X204118270Y-100635695D01*
X204098115Y-100670605D01*
X204091795Y-100684801D01*
X204041409Y-100839873D01*
X204038179Y-100855066D01*
X204026245Y-100968612D01*
X203998605Y-101040617D01*
X203938665Y-101089155D01*
X203860420Y-101100989D01*
X203805624Y-101094455D01*
X203797346Y-101095325D01*
X203797344Y-101095325D01*
X203743456Y-101100989D01*
X203627017Y-101113227D01*
X203619139Y-101115909D01*
X203619134Y-101115910D01*
X203515754Y-101151104D01*
X203457007Y-101171103D01*
X203380526Y-101218154D01*
X203345872Y-101239474D01*
X203304045Y-101265206D01*
X203298096Y-101271032D01*
X203298093Y-101271034D01*
X203201935Y-101365199D01*
X203175732Y-101390859D01*
X203171221Y-101397858D01*
X203171219Y-101397861D01*
X203137947Y-101449489D01*
X203078446Y-101541817D01*
X203075596Y-101549646D01*
X203075596Y-101549647D01*
X203030090Y-101674675D01*
X203017022Y-101710578D01*
X202994514Y-101888753D01*
X202661610Y-101888753D01*
X202638526Y-101827176D01*
X202552546Y-101712454D01*
X202437824Y-101626474D01*
X202303580Y-101576149D01*
X202294295Y-101575140D01*
X202294294Y-101575140D01*
X202275075Y-101573052D01*
X202242377Y-101569500D01*
X202238338Y-101569500D01*
X201268554Y-101569501D01*
X200297624Y-101569501D01*
X200269692Y-101572535D01*
X200245706Y-101575140D01*
X200245703Y-101575141D01*
X200236420Y-101576149D01*
X200102176Y-101626474D01*
X199987454Y-101712454D01*
X199901474Y-101827176D01*
X199897748Y-101837116D01*
X199892983Y-101849825D01*
X199848138Y-101912576D01*
X199777926Y-101944498D01*
X199701160Y-101937038D01*
X199661118Y-101914452D01*
X199526085Y-101807809D01*
X199515930Y-101801062D01*
X199321498Y-101693731D01*
X199310378Y-101688733D01*
X199101018Y-101614595D01*
X199089241Y-101611483D01*
X198870586Y-101572535D01*
X198858448Y-101571387D01*
X198636366Y-101568674D01*
X198624218Y-101569523D01*
X198404664Y-101603119D01*
X198392821Y-101605941D01*
X198195291Y-101670504D01*
X198118276Y-101674675D01*
X198049493Y-101639780D01*
X198007373Y-101575168D01*
X198000000Y-101528877D01*
X198000000Y-100005316D01*
X198000380Y-99994687D01*
X198003961Y-99944616D01*
X198019597Y-99725996D01*
X198022619Y-99704970D01*
X198078749Y-99446945D01*
X198084737Y-99426553D01*
X198177013Y-99179151D01*
X198185845Y-99159813D01*
X198312386Y-98928072D01*
X198323879Y-98910188D01*
X198482113Y-98698812D01*
X198496035Y-98682745D01*
X198635139Y-98543641D01*
X198701934Y-98505077D01*
X198740498Y-98500000D01*
X204703851Y-98500000D01*
X204778351Y-98519962D01*
G37*
%TD.AperFunction*%
%TD*%
%TA.AperFunction,Conductor*%
%TO.N,GND*%
G36*
X193334002Y-98519962D02*
G01*
X193364861Y-98543641D01*
X193503965Y-98682745D01*
X193517887Y-98698812D01*
X193676121Y-98910188D01*
X193687614Y-98928072D01*
X193814155Y-99159813D01*
X193822987Y-99179151D01*
X193915263Y-99426553D01*
X193921251Y-99446945D01*
X193977381Y-99704970D01*
X193980403Y-99725996D01*
X193993732Y-99912357D01*
X193999620Y-99994687D01*
X194000000Y-100005316D01*
X194000000Y-101431443D01*
X193980038Y-101505943D01*
X193925500Y-101560481D01*
X193851000Y-101580443D01*
X193824872Y-101578134D01*
X193790638Y-101572036D01*
X193790631Y-101572035D01*
X193784611Y-101570963D01*
X193778496Y-101570888D01*
X193778493Y-101570888D01*
X193685921Y-101569757D01*
X193550221Y-101568099D01*
X193544182Y-101569023D01*
X193544183Y-101569023D01*
X193324548Y-101602632D01*
X193324546Y-101602633D01*
X193318511Y-101603556D01*
X193095704Y-101676381D01*
X192887782Y-101784618D01*
X192882897Y-101788286D01*
X192882895Y-101788287D01*
X192812971Y-101840788D01*
X192700330Y-101925361D01*
X192696106Y-101929781D01*
X192696105Y-101929782D01*
X192681470Y-101945097D01*
X192538382Y-102094830D01*
X192534937Y-102099880D01*
X192534933Y-102099885D01*
X192497445Y-102154841D01*
X192438972Y-102205136D01*
X192363185Y-102219456D01*
X192290391Y-102193963D01*
X192278623Y-102184702D01*
X192271574Y-102186979D01*
X191477424Y-102981129D01*
X191469416Y-102995000D01*
X191477424Y-103008871D01*
X192265060Y-103796507D01*
X192278931Y-103804515D01*
X192297844Y-103793596D01*
X192372344Y-103773634D01*
X192446844Y-103793596D01*
X192492565Y-103834619D01*
X192495736Y-103839793D01*
X192499742Y-103844418D01*
X192499743Y-103844419D01*
X192606252Y-103967376D01*
X192649212Y-104016971D01*
X192829565Y-104166703D01*
X192834835Y-104169782D01*
X192834837Y-104169784D01*
X193026671Y-104281883D01*
X193026675Y-104281885D01*
X193031951Y-104284968D01*
X193250935Y-104368590D01*
X193480637Y-104415323D01*
X193500665Y-104416057D01*
X193708771Y-104423689D01*
X193708774Y-104423689D01*
X193714887Y-104423913D01*
X193720959Y-104423135D01*
X193720962Y-104423135D01*
X193832068Y-104408902D01*
X193908500Y-104419236D01*
X193969526Y-104466402D01*
X193998792Y-104537762D01*
X194000000Y-104556694D01*
X194000000Y-113000000D01*
X196000000Y-115000000D01*
X204431868Y-115000000D01*
X204506368Y-115019962D01*
X204560906Y-115074500D01*
X204580868Y-115149000D01*
X204573323Y-115177159D01*
X204569842Y-115210277D01*
X204574667Y-115221114D01*
X206986129Y-117632576D01*
X207000000Y-117640584D01*
X207013871Y-117632576D01*
X209421479Y-115224968D01*
X209448373Y-115178386D01*
X209450235Y-115171437D01*
X209504773Y-115116899D01*
X209579273Y-115096937D01*
X209631342Y-115106331D01*
X209820852Y-115177015D01*
X209840184Y-115185843D01*
X209886432Y-115211097D01*
X210071928Y-115312386D01*
X210089812Y-115323879D01*
X210301188Y-115482113D01*
X210317255Y-115496035D01*
X210456359Y-115635139D01*
X210494923Y-115701934D01*
X210500000Y-115740498D01*
X210500000Y-116098556D01*
X210480038Y-116173056D01*
X210425500Y-116227594D01*
X210351000Y-116247556D01*
X210276500Y-116227594D01*
X210218240Y-116166201D01*
X210210461Y-116150934D01*
X210206566Y-116144187D01*
X209999598Y-115825485D01*
X209995016Y-115819178D01*
X209801247Y-115579893D01*
X209788290Y-115570480D01*
X209778886Y-115574667D01*
X207367424Y-117986129D01*
X207359416Y-118000000D01*
X207367424Y-118013871D01*
X209775032Y-120421479D01*
X209788903Y-120429487D01*
X209797819Y-120424340D01*
X209995016Y-120180822D01*
X209999598Y-120174515D01*
X210206566Y-119855813D01*
X210210461Y-119849066D01*
X210218240Y-119833799D01*
X210269849Y-119776482D01*
X210343202Y-119752648D01*
X210418645Y-119768684D01*
X210475962Y-119820293D01*
X210500000Y-119901444D01*
X210500000Y-135949519D01*
X210498226Y-135972441D01*
X210494896Y-135993829D01*
X210496273Y-136004356D01*
X210496528Y-136006308D01*
X210497407Y-136036261D01*
X210493830Y-136086273D01*
X210485492Y-136202842D01*
X210482467Y-136223883D01*
X210441504Y-136412190D01*
X210435514Y-136432588D01*
X210368173Y-136613136D01*
X210359342Y-136632474D01*
X210266988Y-136801609D01*
X210255494Y-136819494D01*
X210140012Y-136973759D01*
X210126091Y-136989825D01*
X209989825Y-137126091D01*
X209973759Y-137140012D01*
X209819494Y-137255494D01*
X209801609Y-137266988D01*
X209632474Y-137359342D01*
X209613136Y-137368173D01*
X209432588Y-137435514D01*
X209412190Y-137441504D01*
X209223883Y-137482467D01*
X209202841Y-137485492D01*
X209043548Y-137496885D01*
X209027279Y-137496210D01*
X209027274Y-137496659D01*
X209016662Y-137496530D01*
X209006171Y-137494896D01*
X208976759Y-137498742D01*
X208957440Y-137500000D01*
X207553423Y-137500000D01*
X207478923Y-137480038D01*
X207424385Y-137425500D01*
X207404423Y-137351000D01*
X207424385Y-137276500D01*
X207466136Y-137231570D01*
X207465633Y-137230928D01*
X207564674Y-137153270D01*
X207574292Y-137140461D01*
X207570486Y-137131539D01*
X206296371Y-135857424D01*
X206282500Y-135849416D01*
X206268629Y-135857424D01*
X204998075Y-137127978D01*
X204990067Y-137141849D01*
X204995538Y-137151326D01*
X205041368Y-137189646D01*
X205049571Y-137195606D01*
X205096077Y-137224779D01*
X205148580Y-137281278D01*
X205165799Y-137356460D01*
X205143120Y-137430178D01*
X205086621Y-137482681D01*
X205016899Y-137500000D01*
X147740498Y-137500000D01*
X147665998Y-137480038D01*
X147635139Y-137456359D01*
X147496035Y-137317255D01*
X147482113Y-137301188D01*
X147323879Y-137089812D01*
X147312386Y-137071928D01*
X147185845Y-136840187D01*
X147177013Y-136820849D01*
X147162726Y-136782542D01*
X147084737Y-136573446D01*
X147078748Y-136553050D01*
X147052543Y-136432588D01*
X147022619Y-136295030D01*
X147019597Y-136274004D01*
X147000380Y-136005313D01*
X147000000Y-135994684D01*
X147000000Y-134088753D01*
X161194514Y-134088753D01*
X161195326Y-134097035D01*
X161195326Y-134097039D01*
X161205899Y-134204870D01*
X161212039Y-134267486D01*
X161214667Y-134275385D01*
X161214667Y-134275387D01*
X161254608Y-134395455D01*
X161268726Y-134437896D01*
X161361759Y-134591512D01*
X161486514Y-134720699D01*
X161636789Y-134819036D01*
X161644599Y-134821941D01*
X161644600Y-134821941D01*
X161697028Y-134841439D01*
X161805116Y-134881636D01*
X161813371Y-134882737D01*
X161813373Y-134882738D01*
X161974875Y-134904287D01*
X161974879Y-134904287D01*
X161983130Y-134905388D01*
X162072555Y-134897250D01*
X162153688Y-134889867D01*
X162153691Y-134889866D01*
X162161981Y-134889112D01*
X162193927Y-134878732D01*
X162324855Y-134836191D01*
X162324858Y-134836190D01*
X162332782Y-134833615D01*
X162487044Y-134741657D01*
X162617099Y-134617807D01*
X162716483Y-134468222D01*
X162726207Y-134442625D01*
X162777298Y-134308125D01*
X162780257Y-134300336D01*
X162800091Y-134159212D01*
X162803887Y-134132200D01*
X164898747Y-134132200D01*
X164936129Y-134416149D01*
X165011702Y-134692398D01*
X165025719Y-134725261D01*
X165091181Y-134878732D01*
X165124068Y-134955835D01*
X165271146Y-135201585D01*
X165450215Y-135425100D01*
X165657962Y-135622245D01*
X165662070Y-135625197D01*
X165662075Y-135625201D01*
X165816225Y-135735968D01*
X165890543Y-135789371D01*
X165895021Y-135791742D01*
X166019073Y-135857424D01*
X166143653Y-135923386D01*
X166148415Y-135925129D01*
X166148418Y-135925130D01*
X166407843Y-136020066D01*
X166407849Y-136020068D01*
X166412610Y-136021810D01*
X166417560Y-136022889D01*
X166417566Y-136022891D01*
X166687491Y-136081744D01*
X166687494Y-136081744D01*
X166692436Y-136082822D01*
X166718826Y-136084899D01*
X166914150Y-136100272D01*
X166914162Y-136100272D01*
X166917053Y-136100500D01*
X167071992Y-136100500D01*
X167179901Y-136093143D01*
X167280678Y-136086273D01*
X167280680Y-136086273D01*
X167285737Y-136085928D01*
X167566186Y-136027850D01*
X167836158Y-135932248D01*
X167981127Y-135857424D01*
X168086152Y-135803217D01*
X168086155Y-135803215D01*
X168090658Y-135800891D01*
X168094805Y-135797976D01*
X168094809Y-135797974D01*
X168320829Y-135639124D01*
X168320833Y-135639121D01*
X168324976Y-135636209D01*
X168500585Y-135473023D01*
X204178000Y-135473023D01*
X204193899Y-135748759D01*
X204195166Y-135758782D01*
X204248340Y-136029814D01*
X204250959Y-136039588D01*
X204340422Y-136300887D01*
X204344345Y-136310220D01*
X204468438Y-136556951D01*
X204473588Y-136565661D01*
X204617141Y-136774531D01*
X204629320Y-136784932D01*
X204636589Y-136782358D01*
X205915076Y-135503871D01*
X205923084Y-135490000D01*
X206641916Y-135490000D01*
X206649924Y-135503871D01*
X207920587Y-136774534D01*
X207934458Y-136782542D01*
X207941936Y-136778225D01*
X208056729Y-136621953D01*
X208062152Y-136613410D01*
X208193937Y-136370690D01*
X208198150Y-136361487D01*
X208295777Y-136103127D01*
X208298701Y-136093441D01*
X208360359Y-135824228D01*
X208361943Y-135814227D01*
X208386686Y-135536985D01*
X208386976Y-135531172D01*
X208387376Y-135492918D01*
X208387208Y-135487087D01*
X208368277Y-135209390D01*
X208366903Y-135199364D01*
X208310900Y-134928930D01*
X208308169Y-134919152D01*
X208215985Y-134658834D01*
X208211958Y-134649527D01*
X208085286Y-134404104D01*
X208080048Y-134395455D01*
X207947096Y-134206283D01*
X207934810Y-134196010D01*
X207927292Y-134198761D01*
X206649924Y-135476129D01*
X206641916Y-135490000D01*
X205923084Y-135490000D01*
X205915076Y-135476129D01*
X204643817Y-134204870D01*
X204629946Y-134196862D01*
X204622746Y-134201018D01*
X204496520Y-134376680D01*
X204491178Y-134385296D01*
X204361945Y-134629375D01*
X204357828Y-134638622D01*
X204262913Y-134897990D01*
X204260091Y-134907701D01*
X204201253Y-135177560D01*
X204199777Y-135187557D01*
X204178106Y-135462902D01*
X204178000Y-135473023D01*
X168500585Y-135473023D01*
X168534776Y-135441251D01*
X168716177Y-135219623D01*
X168724809Y-135205538D01*
X168863175Y-134979743D01*
X168865820Y-134975427D01*
X168874421Y-134955835D01*
X168970962Y-134735907D01*
X168980938Y-134713182D01*
X169059400Y-134437739D01*
X169099754Y-134154196D01*
X169099870Y-134132200D01*
X169101226Y-133872876D01*
X169101253Y-133867800D01*
X169097516Y-133839414D01*
X204990650Y-133839414D01*
X204994705Y-133848652D01*
X206268629Y-135122576D01*
X206282500Y-135130584D01*
X206296371Y-135122576D01*
X207566534Y-133852413D01*
X207574542Y-133838542D01*
X207569290Y-133829445D01*
X207505760Y-133777446D01*
X207497502Y-133771578D01*
X207262026Y-133627278D01*
X207253051Y-133622585D01*
X207000161Y-133511574D01*
X206990622Y-133508140D01*
X206725021Y-133432482D01*
X206715111Y-133430375D01*
X206441676Y-133391460D01*
X206431591Y-133390719D01*
X206155408Y-133389274D01*
X206145297Y-133389910D01*
X205871486Y-133425957D01*
X205861552Y-133427960D01*
X205595152Y-133500839D01*
X205585611Y-133504162D01*
X205331549Y-133612528D01*
X205322548Y-133617114D01*
X205085543Y-133758958D01*
X205077248Y-133764724D01*
X205000133Y-133826504D01*
X204990650Y-133839414D01*
X169097516Y-133839414D01*
X169063871Y-133583851D01*
X168988298Y-133307602D01*
X168875932Y-133044165D01*
X168728854Y-132798415D01*
X168549785Y-132574900D01*
X168342038Y-132377755D01*
X168337930Y-132374803D01*
X168337925Y-132374799D01*
X168183775Y-132264032D01*
X168109457Y-132210629D01*
X168087700Y-132199109D01*
X167860829Y-132078987D01*
X167860828Y-132078986D01*
X167856347Y-132076614D01*
X167851585Y-132074871D01*
X167851582Y-132074870D01*
X167592157Y-131979934D01*
X167592151Y-131979932D01*
X167587390Y-131978190D01*
X167582440Y-131977111D01*
X167582434Y-131977109D01*
X167312509Y-131918256D01*
X167312506Y-131918256D01*
X167307564Y-131917178D01*
X167263716Y-131913727D01*
X167085850Y-131899728D01*
X167085838Y-131899728D01*
X167082947Y-131899500D01*
X166928008Y-131899500D01*
X166841642Y-131905388D01*
X166719322Y-131913727D01*
X166719320Y-131913727D01*
X166714263Y-131914072D01*
X166433814Y-131972150D01*
X166163842Y-132067752D01*
X166142075Y-132078987D01*
X165913848Y-132196783D01*
X165913845Y-132196785D01*
X165909342Y-132199109D01*
X165905195Y-132202024D01*
X165905191Y-132202026D01*
X165679171Y-132360876D01*
X165679167Y-132360879D01*
X165675024Y-132363791D01*
X165465224Y-132558749D01*
X165283823Y-132780377D01*
X165281174Y-132784700D01*
X165281171Y-132784704D01*
X165244546Y-132844471D01*
X165134180Y-133024573D01*
X165132147Y-133029204D01*
X165132144Y-133029210D01*
X165055797Y-133203134D01*
X165019062Y-133286818D01*
X164940600Y-133562261D01*
X164900246Y-133845804D01*
X164900220Y-133850866D01*
X164900219Y-133850873D01*
X164899806Y-133929814D01*
X164898747Y-134132200D01*
X162803887Y-134132200D01*
X162804600Y-134127128D01*
X162804600Y-134127122D01*
X162805251Y-134122493D01*
X162805565Y-134100000D01*
X162804304Y-134088753D01*
X162786475Y-133929814D01*
X162785546Y-133921528D01*
X162726485Y-133751927D01*
X162631316Y-133599625D01*
X162504770Y-133472193D01*
X162497740Y-133467732D01*
X162497738Y-133467730D01*
X162360169Y-133380426D01*
X162360167Y-133380425D01*
X162353136Y-133375963D01*
X162331948Y-133368418D01*
X162191800Y-133318514D01*
X162191801Y-133318514D01*
X162183951Y-133315719D01*
X162175680Y-133314733D01*
X162175677Y-133314732D01*
X162073368Y-133302533D01*
X162005624Y-133294455D01*
X161997346Y-133295325D01*
X161997344Y-133295325D01*
X161930547Y-133302346D01*
X161827017Y-133313227D01*
X161819139Y-133315909D01*
X161819134Y-133315910D01*
X161715754Y-133351104D01*
X161657007Y-133371103D01*
X161504045Y-133465206D01*
X161498096Y-133471032D01*
X161498093Y-133471034D01*
X161404935Y-133562261D01*
X161375732Y-133590859D01*
X161371221Y-133597858D01*
X161371219Y-133597861D01*
X161309616Y-133693450D01*
X161278446Y-133741817D01*
X161275596Y-133749646D01*
X161275596Y-133749647D01*
X161234425Y-133862765D01*
X161217022Y-133910578D01*
X161194514Y-134088753D01*
X147000000Y-134088753D01*
X147000000Y-131088753D01*
X175694514Y-131088753D01*
X175695326Y-131097035D01*
X175695326Y-131097039D01*
X175708067Y-131226979D01*
X175712039Y-131267486D01*
X175714667Y-131275385D01*
X175714667Y-131275387D01*
X175732832Y-131329993D01*
X175768726Y-131437896D01*
X175861759Y-131591512D01*
X175867547Y-131597505D01*
X175867548Y-131597507D01*
X175892703Y-131623555D01*
X175986514Y-131720699D01*
X175993483Y-131725259D01*
X175993485Y-131725261D01*
X176009754Y-131735907D01*
X176136789Y-131819036D01*
X176144599Y-131821941D01*
X176144600Y-131821941D01*
X176197028Y-131841439D01*
X176305116Y-131881636D01*
X176313371Y-131882737D01*
X176313373Y-131882738D01*
X176474875Y-131904287D01*
X176474879Y-131904287D01*
X176483130Y-131905388D01*
X176572555Y-131897250D01*
X176653688Y-131889867D01*
X176653691Y-131889866D01*
X176661981Y-131889112D01*
X176693927Y-131878732D01*
X176824855Y-131836191D01*
X176824858Y-131836190D01*
X176832782Y-131833615D01*
X176987044Y-131741657D01*
X177117099Y-131617807D01*
X177201009Y-131491512D01*
X177211873Y-131475161D01*
X177211874Y-131475159D01*
X177216483Y-131468222D01*
X177280257Y-131300336D01*
X177298928Y-131167486D01*
X177304600Y-131127128D01*
X177304600Y-131127122D01*
X177305251Y-131122493D01*
X177305565Y-131100000D01*
X177304304Y-131088753D01*
X177293826Y-130995342D01*
X177293087Y-130988753D01*
X184094514Y-130988753D01*
X184095326Y-130997035D01*
X184095326Y-130997039D01*
X184110831Y-131155167D01*
X184112039Y-131167486D01*
X184114667Y-131175385D01*
X184114667Y-131175387D01*
X184130863Y-131224074D01*
X184168726Y-131337896D01*
X184261759Y-131491512D01*
X184386514Y-131620699D01*
X184536789Y-131719036D01*
X184544599Y-131721941D01*
X184544600Y-131721941D01*
X184597028Y-131741439D01*
X184705116Y-131781636D01*
X184713371Y-131782737D01*
X184713373Y-131782738D01*
X184874875Y-131804287D01*
X184874879Y-131804287D01*
X184883130Y-131805388D01*
X184972556Y-131797250D01*
X185053688Y-131789867D01*
X185053691Y-131789866D01*
X185061981Y-131789112D01*
X185093927Y-131778732D01*
X185224855Y-131736191D01*
X185224858Y-131736190D01*
X185232782Y-131733615D01*
X185387044Y-131641657D01*
X185517099Y-131517807D01*
X185570192Y-131437896D01*
X185611873Y-131375161D01*
X185611874Y-131375159D01*
X185616483Y-131368222D01*
X185670136Y-131226979D01*
X197182000Y-131226979D01*
X197182001Y-132153020D01*
X197188188Y-132231645D01*
X197237180Y-132414488D01*
X197240724Y-132421444D01*
X197240725Y-132421446D01*
X197318914Y-132574900D01*
X197323117Y-132583149D01*
X197442243Y-132730257D01*
X197589351Y-132849383D01*
X197596304Y-132852926D01*
X197596306Y-132852927D01*
X197751054Y-132931775D01*
X197751056Y-132931776D01*
X197758012Y-132935320D01*
X197940855Y-132984312D01*
X197964592Y-132986180D01*
X198016577Y-132990272D01*
X198016587Y-132990272D01*
X198019479Y-132990500D01*
X198482420Y-132990500D01*
X198945520Y-132990499D01*
X198998696Y-132986315D01*
X199017335Y-132984848D01*
X199017336Y-132984848D01*
X199024145Y-132984312D01*
X199030740Y-132982545D01*
X199030745Y-132982544D01*
X199121156Y-132958318D01*
X199206988Y-132935320D01*
X199213944Y-132931776D01*
X199213946Y-132931775D01*
X199368694Y-132852927D01*
X199368696Y-132852926D01*
X199375649Y-132849383D01*
X199522757Y-132730257D01*
X199641883Y-132583149D01*
X199646086Y-132574900D01*
X199724275Y-132421446D01*
X199724276Y-132421444D01*
X199727820Y-132414488D01*
X199776812Y-132231645D01*
X199779556Y-132196783D01*
X199782772Y-132155923D01*
X199782772Y-132155913D01*
X199783000Y-132153021D01*
X199782999Y-131226980D01*
X199776812Y-131148355D01*
X199771125Y-131127128D01*
X199737061Y-131000000D01*
X199727820Y-130965512D01*
X199704041Y-130918842D01*
X199645427Y-130803806D01*
X199645426Y-130803804D01*
X199641883Y-130796851D01*
X199591646Y-130734813D01*
X199527670Y-130655810D01*
X199522757Y-130649743D01*
X199453570Y-130593716D01*
X199381715Y-130535529D01*
X199381714Y-130535528D01*
X199375649Y-130530617D01*
X199303227Y-130493716D01*
X199213946Y-130448225D01*
X199213944Y-130448224D01*
X199206988Y-130444680D01*
X199024145Y-130395688D01*
X199000408Y-130393820D01*
X198948423Y-130389728D01*
X198948413Y-130389728D01*
X198945521Y-130389500D01*
X198482580Y-130389500D01*
X198019480Y-130389501D01*
X197966304Y-130393685D01*
X197947665Y-130395152D01*
X197947664Y-130395152D01*
X197940855Y-130395688D01*
X197934260Y-130397455D01*
X197934255Y-130397456D01*
X197843844Y-130421682D01*
X197758012Y-130444680D01*
X197751056Y-130448224D01*
X197751054Y-130448225D01*
X197661773Y-130493716D01*
X197589351Y-130530617D01*
X197583286Y-130535528D01*
X197583285Y-130535529D01*
X197511430Y-130593716D01*
X197442243Y-130649743D01*
X197437330Y-130655810D01*
X197373355Y-130734813D01*
X197323117Y-130796851D01*
X197319574Y-130803804D01*
X197319573Y-130803806D01*
X197260960Y-130918842D01*
X197237180Y-130965512D01*
X197188188Y-131148355D01*
X197187652Y-131155165D01*
X197187652Y-131155167D01*
X197182229Y-131224074D01*
X197182000Y-131226979D01*
X185670136Y-131226979D01*
X185680257Y-131200336D01*
X185705251Y-131022493D01*
X185705565Y-131000000D01*
X185704304Y-130988753D01*
X185686475Y-130829814D01*
X185685546Y-130821528D01*
X185626485Y-130651927D01*
X185622051Y-130644830D01*
X185535730Y-130506689D01*
X185531316Y-130499625D01*
X185404770Y-130372193D01*
X185397740Y-130367732D01*
X185397738Y-130367730D01*
X185260169Y-130280426D01*
X185260167Y-130280425D01*
X185253136Y-130275963D01*
X185231948Y-130268418D01*
X185091800Y-130218514D01*
X185091801Y-130218514D01*
X185083951Y-130215719D01*
X185075680Y-130214733D01*
X185075677Y-130214732D01*
X184973368Y-130202533D01*
X184905624Y-130194455D01*
X184897346Y-130195325D01*
X184897344Y-130195325D01*
X184830547Y-130202346D01*
X184727017Y-130213227D01*
X184719139Y-130215909D01*
X184719134Y-130215910D01*
X184615754Y-130251104D01*
X184557007Y-130271103D01*
X184404045Y-130365206D01*
X184398096Y-130371032D01*
X184398093Y-130371034D01*
X184294793Y-130472193D01*
X184275732Y-130490859D01*
X184271221Y-130497858D01*
X184271219Y-130497861D01*
X184211286Y-130590859D01*
X184178446Y-130641817D01*
X184175596Y-130649646D01*
X184175596Y-130649647D01*
X184135506Y-130759795D01*
X184117022Y-130810578D01*
X184094514Y-130988753D01*
X177293087Y-130988753D01*
X177285546Y-130921528D01*
X177226485Y-130751927D01*
X177168915Y-130659795D01*
X177135730Y-130606689D01*
X177131316Y-130599625D01*
X177004770Y-130472193D01*
X176997740Y-130467732D01*
X176997738Y-130467730D01*
X176860169Y-130380426D01*
X176860167Y-130380425D01*
X176853136Y-130375963D01*
X176831948Y-130368418D01*
X176691800Y-130318514D01*
X176691801Y-130318514D01*
X176683951Y-130315719D01*
X176675680Y-130314733D01*
X176675677Y-130314732D01*
X176573368Y-130302533D01*
X176505624Y-130294455D01*
X176497346Y-130295325D01*
X176497344Y-130295325D01*
X176430547Y-130302346D01*
X176327017Y-130313227D01*
X176319139Y-130315909D01*
X176319134Y-130315910D01*
X176215754Y-130351104D01*
X176157007Y-130371103D01*
X176117916Y-130395152D01*
X176040695Y-130442659D01*
X176004045Y-130465206D01*
X175998096Y-130471032D01*
X175998093Y-130471034D01*
X175940868Y-130527073D01*
X175875732Y-130590859D01*
X175871221Y-130597858D01*
X175871219Y-130597861D01*
X175837784Y-130649743D01*
X175778446Y-130741817D01*
X175775596Y-130749646D01*
X175775596Y-130749647D01*
X175749434Y-130821528D01*
X175717022Y-130910578D01*
X175694514Y-131088753D01*
X147000000Y-131088753D01*
X147000000Y-129288753D01*
X161294514Y-129288753D01*
X161295326Y-129297035D01*
X161295326Y-129297039D01*
X161311226Y-129459199D01*
X161312039Y-129467486D01*
X161314667Y-129475385D01*
X161314667Y-129475387D01*
X161366097Y-129629993D01*
X161368726Y-129637896D01*
X161461759Y-129791512D01*
X161586514Y-129920699D01*
X161593483Y-129925259D01*
X161593485Y-129925261D01*
X161623622Y-129944982D01*
X161736789Y-130019036D01*
X161744599Y-130021941D01*
X161744600Y-130021941D01*
X161797028Y-130041439D01*
X161905116Y-130081636D01*
X161913371Y-130082737D01*
X161913373Y-130082738D01*
X162074875Y-130104287D01*
X162074879Y-130104287D01*
X162083130Y-130105388D01*
X162172555Y-130097250D01*
X162253688Y-130089867D01*
X162253691Y-130089866D01*
X162261981Y-130089112D01*
X162293927Y-130078732D01*
X162424855Y-130036191D01*
X162424858Y-130036190D01*
X162432782Y-130033615D01*
X162587044Y-129941657D01*
X162717099Y-129817807D01*
X162816483Y-129668222D01*
X162864488Y-129541849D01*
X204990067Y-129541849D01*
X204995538Y-129551326D01*
X205041368Y-129589646D01*
X205049571Y-129595606D01*
X205283521Y-129742362D01*
X205292453Y-129747152D01*
X205544162Y-129860802D01*
X205553656Y-129864333D01*
X205818458Y-129942771D01*
X205828346Y-129944982D01*
X206101365Y-129986760D01*
X206111425Y-129987604D01*
X206387590Y-129991942D01*
X206397700Y-129991412D01*
X206671882Y-129958233D01*
X206681829Y-129956335D01*
X206948976Y-129886250D01*
X206958565Y-129883024D01*
X207213729Y-129777332D01*
X207222795Y-129772831D01*
X207461253Y-129633487D01*
X207469629Y-129627794D01*
X207564674Y-129553270D01*
X207574292Y-129540461D01*
X207570486Y-129531539D01*
X206296371Y-128257424D01*
X206282500Y-128249416D01*
X206268629Y-128257424D01*
X204998075Y-129527978D01*
X204990067Y-129541849D01*
X162864488Y-129541849D01*
X162880257Y-129500336D01*
X162905251Y-129322493D01*
X162905565Y-129300000D01*
X162904304Y-129288753D01*
X162892369Y-129182358D01*
X162885546Y-129121528D01*
X162826485Y-128951927D01*
X162731316Y-128799625D01*
X162642533Y-128710220D01*
X162610638Y-128678102D01*
X162604770Y-128672193D01*
X162597740Y-128667732D01*
X162597738Y-128667730D01*
X162460169Y-128580426D01*
X162460167Y-128580425D01*
X162453136Y-128575963D01*
X162431948Y-128568418D01*
X162291800Y-128518514D01*
X162291801Y-128518514D01*
X162283951Y-128515719D01*
X162275680Y-128514733D01*
X162275677Y-128514732D01*
X162173368Y-128502533D01*
X162105624Y-128494455D01*
X162097346Y-128495325D01*
X162097344Y-128495325D01*
X162030547Y-128502346D01*
X161927017Y-128513227D01*
X161919139Y-128515909D01*
X161919134Y-128515910D01*
X161815754Y-128551104D01*
X161757007Y-128571103D01*
X161604045Y-128665206D01*
X161598096Y-128671032D01*
X161598093Y-128671034D01*
X161496328Y-128770690D01*
X161475732Y-128790859D01*
X161471221Y-128797858D01*
X161471219Y-128797861D01*
X161465530Y-128806689D01*
X161378446Y-128941817D01*
X161375596Y-128949646D01*
X161375596Y-128949647D01*
X161371903Y-128959795D01*
X161317022Y-129110578D01*
X161294514Y-129288753D01*
X147000000Y-129288753D01*
X147000000Y-127873023D01*
X204178000Y-127873023D01*
X204193899Y-128148759D01*
X204195166Y-128158782D01*
X204248340Y-128429814D01*
X204250959Y-128439588D01*
X204340422Y-128700887D01*
X204344345Y-128710220D01*
X204468438Y-128956951D01*
X204473588Y-128965661D01*
X204617141Y-129174531D01*
X204629320Y-129184932D01*
X204636589Y-129182358D01*
X205915076Y-127903871D01*
X205923084Y-127890000D01*
X206641916Y-127890000D01*
X206649924Y-127903871D01*
X207920587Y-129174534D01*
X207934458Y-129182542D01*
X207941936Y-129178225D01*
X208056729Y-129021953D01*
X208062152Y-129013410D01*
X208193937Y-128770690D01*
X208198150Y-128761487D01*
X208295777Y-128503127D01*
X208298701Y-128493441D01*
X208360359Y-128224228D01*
X208361943Y-128214227D01*
X208386686Y-127936985D01*
X208386976Y-127931172D01*
X208387376Y-127892918D01*
X208387208Y-127887087D01*
X208368277Y-127609390D01*
X208366903Y-127599364D01*
X208310900Y-127328930D01*
X208308169Y-127319152D01*
X208215985Y-127058834D01*
X208211958Y-127049527D01*
X208085286Y-126804104D01*
X208080048Y-126795455D01*
X207947096Y-126606283D01*
X207934810Y-126596010D01*
X207927292Y-126598761D01*
X206649924Y-127876129D01*
X206641916Y-127890000D01*
X205923084Y-127890000D01*
X205915076Y-127876129D01*
X204643817Y-126604870D01*
X204629946Y-126596862D01*
X204622746Y-126601018D01*
X204496520Y-126776680D01*
X204491178Y-126785296D01*
X204361945Y-127029375D01*
X204357828Y-127038622D01*
X204262913Y-127297990D01*
X204260091Y-127307701D01*
X204201253Y-127577560D01*
X204199777Y-127587557D01*
X204178106Y-127862902D01*
X204178000Y-127873023D01*
X147000000Y-127873023D01*
X147000000Y-126088753D01*
X185594514Y-126088753D01*
X185595326Y-126097035D01*
X185595326Y-126097039D01*
X185610192Y-126248652D01*
X185612039Y-126267486D01*
X185614667Y-126275385D01*
X185614667Y-126275387D01*
X185666097Y-126429993D01*
X185668726Y-126437896D01*
X185761759Y-126591512D01*
X185767547Y-126597505D01*
X185767548Y-126597507D01*
X185776023Y-126606283D01*
X185886514Y-126720699D01*
X186036789Y-126819036D01*
X186044599Y-126821941D01*
X186044600Y-126821941D01*
X186097028Y-126841439D01*
X186205116Y-126881636D01*
X186213371Y-126882737D01*
X186213373Y-126882738D01*
X186374875Y-126904287D01*
X186374879Y-126904287D01*
X186383130Y-126905388D01*
X186472556Y-126897250D01*
X186553688Y-126889867D01*
X186553691Y-126889866D01*
X186561981Y-126889112D01*
X186593927Y-126878732D01*
X186724855Y-126836191D01*
X186724858Y-126836190D01*
X186732782Y-126833615D01*
X186887044Y-126741657D01*
X187017099Y-126617807D01*
X187116483Y-126468222D01*
X187180257Y-126300336D01*
X187188819Y-126239414D01*
X204990650Y-126239414D01*
X204994705Y-126248652D01*
X206268629Y-127522576D01*
X206282500Y-127530584D01*
X206296371Y-127522576D01*
X207566534Y-126252413D01*
X207574542Y-126238542D01*
X207569290Y-126229445D01*
X207505760Y-126177446D01*
X207497502Y-126171578D01*
X207262026Y-126027278D01*
X207253051Y-126022585D01*
X207000161Y-125911574D01*
X206990622Y-125908140D01*
X206725021Y-125832482D01*
X206715111Y-125830375D01*
X206441676Y-125791460D01*
X206431591Y-125790719D01*
X206155408Y-125789274D01*
X206145297Y-125789910D01*
X205871486Y-125825957D01*
X205861552Y-125827960D01*
X205595152Y-125900839D01*
X205585611Y-125904162D01*
X205331549Y-126012528D01*
X205322548Y-126017114D01*
X205085543Y-126158958D01*
X205077248Y-126164724D01*
X205000133Y-126226504D01*
X204990650Y-126239414D01*
X187188819Y-126239414D01*
X187205251Y-126122493D01*
X187205565Y-126100000D01*
X187204304Y-126088753D01*
X187194829Y-126004287D01*
X187185546Y-125921528D01*
X187126485Y-125751927D01*
X187105165Y-125717807D01*
X187035730Y-125606689D01*
X187031316Y-125599625D01*
X186904770Y-125472193D01*
X186897740Y-125467732D01*
X186897738Y-125467730D01*
X186760169Y-125380426D01*
X186760167Y-125380425D01*
X186753136Y-125375963D01*
X186731948Y-125368418D01*
X186591800Y-125318514D01*
X186591801Y-125318514D01*
X186583951Y-125315719D01*
X186575680Y-125314733D01*
X186575677Y-125314732D01*
X186473368Y-125302533D01*
X186405624Y-125294455D01*
X186397346Y-125295325D01*
X186397344Y-125295325D01*
X186330547Y-125302346D01*
X186227017Y-125313227D01*
X186219139Y-125315909D01*
X186219134Y-125315910D01*
X186115754Y-125351104D01*
X186057007Y-125371103D01*
X185904045Y-125465206D01*
X185898096Y-125471032D01*
X185898093Y-125471034D01*
X185822539Y-125545022D01*
X185775732Y-125590859D01*
X185771221Y-125597858D01*
X185771219Y-125597861D01*
X185746517Y-125636191D01*
X185678446Y-125741817D01*
X185675596Y-125749646D01*
X185675596Y-125749647D01*
X185645447Y-125832482D01*
X185617022Y-125910578D01*
X185615978Y-125918842D01*
X185615639Y-125921528D01*
X185594514Y-126088753D01*
X147000000Y-126088753D01*
X147000000Y-124888753D01*
X159794514Y-124888753D01*
X159795326Y-124897035D01*
X159795326Y-124897039D01*
X159808345Y-125029814D01*
X159812039Y-125067486D01*
X159814667Y-125075385D01*
X159814667Y-125075387D01*
X159854570Y-125195342D01*
X159868726Y-125237896D01*
X159961759Y-125391512D01*
X160086514Y-125520699D01*
X160093483Y-125525259D01*
X160093485Y-125525261D01*
X160125063Y-125545925D01*
X160236789Y-125619036D01*
X160244599Y-125621941D01*
X160244600Y-125621941D01*
X160297028Y-125641439D01*
X160405116Y-125681636D01*
X160413371Y-125682737D01*
X160413373Y-125682738D01*
X160574875Y-125704287D01*
X160574879Y-125704287D01*
X160583130Y-125705388D01*
X160672556Y-125697250D01*
X160753688Y-125689867D01*
X160753691Y-125689866D01*
X160761981Y-125689112D01*
X160793927Y-125678732D01*
X160924855Y-125636191D01*
X160924858Y-125636190D01*
X160932782Y-125633615D01*
X161087044Y-125541657D01*
X161217099Y-125417807D01*
X161316483Y-125268222D01*
X161346671Y-125188753D01*
X162594514Y-125188753D01*
X162595326Y-125197035D01*
X162595326Y-125197039D01*
X162607237Y-125318514D01*
X162612039Y-125367486D01*
X162614667Y-125375385D01*
X162614667Y-125375387D01*
X162645385Y-125467730D01*
X162668726Y-125537896D01*
X162761759Y-125691512D01*
X162767547Y-125697505D01*
X162767548Y-125697507D01*
X162774430Y-125704633D01*
X162886514Y-125820699D01*
X162893483Y-125825259D01*
X162893485Y-125825261D01*
X162904520Y-125832482D01*
X163036789Y-125919036D01*
X163044599Y-125921941D01*
X163044600Y-125921941D01*
X163097028Y-125941439D01*
X163205116Y-125981636D01*
X163213371Y-125982737D01*
X163213373Y-125982738D01*
X163374875Y-126004287D01*
X163374879Y-126004287D01*
X163383130Y-126005388D01*
X163472555Y-125997250D01*
X163553688Y-125989867D01*
X163553691Y-125989866D01*
X163561981Y-125989112D01*
X163593927Y-125978732D01*
X163724855Y-125936191D01*
X163724858Y-125936190D01*
X163732782Y-125933615D01*
X163887044Y-125841657D01*
X164017099Y-125717807D01*
X164101443Y-125590859D01*
X164111873Y-125575161D01*
X164111874Y-125575159D01*
X164116483Y-125568222D01*
X164128759Y-125535907D01*
X164177298Y-125408125D01*
X164180257Y-125400336D01*
X164195015Y-125295325D01*
X164204600Y-125227128D01*
X164204600Y-125227122D01*
X164205251Y-125222493D01*
X164205565Y-125200000D01*
X164204304Y-125188753D01*
X164190701Y-125067486D01*
X164185546Y-125021528D01*
X164126485Y-124851927D01*
X164031316Y-124699625D01*
X163904770Y-124572193D01*
X163897740Y-124567732D01*
X163897738Y-124567730D01*
X163760169Y-124480426D01*
X163760167Y-124480425D01*
X163753136Y-124475963D01*
X163731948Y-124468418D01*
X163591800Y-124418514D01*
X163591801Y-124418514D01*
X163583951Y-124415719D01*
X163575680Y-124414733D01*
X163575677Y-124414732D01*
X163448981Y-124399625D01*
X163405624Y-124394455D01*
X163397346Y-124395325D01*
X163397344Y-124395325D01*
X163330547Y-124402346D01*
X163227017Y-124413227D01*
X163219139Y-124415909D01*
X163219134Y-124415910D01*
X163115754Y-124451104D01*
X163057007Y-124471103D01*
X163041853Y-124480426D01*
X162925630Y-124551927D01*
X162904045Y-124565206D01*
X162898096Y-124571032D01*
X162898093Y-124571034D01*
X162781682Y-124685032D01*
X162775732Y-124690859D01*
X162771221Y-124697858D01*
X162771219Y-124697861D01*
X162765530Y-124706689D01*
X162678446Y-124841817D01*
X162675596Y-124849646D01*
X162675596Y-124849647D01*
X162650788Y-124917808D01*
X162617022Y-125010578D01*
X162594514Y-125188753D01*
X161346671Y-125188753D01*
X161377298Y-125108125D01*
X161380257Y-125100336D01*
X161405251Y-124922493D01*
X161405565Y-124900000D01*
X161404304Y-124888753D01*
X161386475Y-124729814D01*
X161385546Y-124721528D01*
X161331109Y-124565206D01*
X161329225Y-124559795D01*
X161329225Y-124559794D01*
X161326485Y-124551927D01*
X161296933Y-124504633D01*
X161235730Y-124406689D01*
X161231316Y-124399625D01*
X161104770Y-124272193D01*
X161097740Y-124267732D01*
X161097738Y-124267730D01*
X160960169Y-124180426D01*
X160960167Y-124180425D01*
X160953136Y-124175963D01*
X160931948Y-124168418D01*
X160791800Y-124118514D01*
X160791801Y-124118514D01*
X160783951Y-124115719D01*
X160775680Y-124114733D01*
X160775677Y-124114732D01*
X160673368Y-124102533D01*
X160605624Y-124094455D01*
X160597346Y-124095325D01*
X160597344Y-124095325D01*
X160530547Y-124102346D01*
X160427017Y-124113227D01*
X160419139Y-124115909D01*
X160419134Y-124115910D01*
X160315754Y-124151104D01*
X160257007Y-124171103D01*
X160104045Y-124265206D01*
X160098096Y-124271032D01*
X160098093Y-124271034D01*
X160021617Y-124345925D01*
X159975732Y-124390859D01*
X159971221Y-124397858D01*
X159971219Y-124397861D01*
X159924018Y-124471103D01*
X159878446Y-124541817D01*
X159875596Y-124549646D01*
X159875596Y-124549647D01*
X159821009Y-124699625D01*
X159817022Y-124710578D01*
X159794514Y-124888753D01*
X147000000Y-124888753D01*
X147000000Y-123188753D01*
X162194514Y-123188753D01*
X162195326Y-123197035D01*
X162195326Y-123197039D01*
X162210513Y-123351927D01*
X162212039Y-123367486D01*
X162214667Y-123375385D01*
X162214667Y-123375387D01*
X162266097Y-123529993D01*
X162268726Y-123537896D01*
X162361759Y-123691512D01*
X162367547Y-123697505D01*
X162367548Y-123697507D01*
X162374482Y-123704687D01*
X162486514Y-123820699D01*
X162636789Y-123919036D01*
X162644599Y-123921941D01*
X162644600Y-123921941D01*
X162697028Y-123941439D01*
X162805116Y-123981636D01*
X162813371Y-123982737D01*
X162813373Y-123982738D01*
X162974875Y-124004287D01*
X162974879Y-124004287D01*
X162983130Y-124005388D01*
X163072555Y-123997250D01*
X163153688Y-123989867D01*
X163153691Y-123989866D01*
X163161981Y-123989112D01*
X163193927Y-123978732D01*
X163324855Y-123936191D01*
X163324858Y-123936190D01*
X163332782Y-123933615D01*
X163487044Y-123841657D01*
X163617099Y-123717807D01*
X163636402Y-123688753D01*
X179894514Y-123688753D01*
X179895326Y-123697035D01*
X179895326Y-123697039D01*
X179911226Y-123859199D01*
X179912039Y-123867486D01*
X179914667Y-123875385D01*
X179914667Y-123875387D01*
X179927669Y-123914473D01*
X179968726Y-124037896D01*
X180061759Y-124191512D01*
X180186514Y-124320699D01*
X180336789Y-124419036D01*
X180344599Y-124421941D01*
X180344600Y-124421941D01*
X180397028Y-124441439D01*
X180505116Y-124481636D01*
X180513371Y-124482737D01*
X180513373Y-124482738D01*
X180674875Y-124504287D01*
X180674879Y-124504287D01*
X180683130Y-124505388D01*
X180772556Y-124497250D01*
X180853688Y-124489867D01*
X180853691Y-124489866D01*
X180861981Y-124489112D01*
X180902449Y-124475963D01*
X181024855Y-124436191D01*
X181024858Y-124436190D01*
X181032782Y-124433615D01*
X181187044Y-124341657D01*
X181317099Y-124217807D01*
X181416483Y-124068222D01*
X181440352Y-124005388D01*
X181472050Y-123921941D01*
X181480257Y-123900336D01*
X181505251Y-123722493D01*
X181505565Y-123700000D01*
X181504304Y-123688753D01*
X181491562Y-123575161D01*
X181485546Y-123521528D01*
X181426485Y-123351927D01*
X181331316Y-123199625D01*
X181204770Y-123072193D01*
X181197740Y-123067732D01*
X181197738Y-123067730D01*
X181060169Y-122980426D01*
X181060167Y-122980425D01*
X181053136Y-122975963D01*
X181031948Y-122968418D01*
X180891800Y-122918514D01*
X180891801Y-122918514D01*
X180883951Y-122915719D01*
X180875680Y-122914733D01*
X180875677Y-122914732D01*
X180773368Y-122902533D01*
X180705624Y-122894455D01*
X180697346Y-122895325D01*
X180697344Y-122895325D01*
X180630547Y-122902346D01*
X180527017Y-122913227D01*
X180519139Y-122915909D01*
X180519134Y-122915910D01*
X180443504Y-122941657D01*
X180357007Y-122971103D01*
X180204045Y-123065206D01*
X180198096Y-123071032D01*
X180198093Y-123071034D01*
X180163783Y-123104633D01*
X180075732Y-123190859D01*
X180071221Y-123197858D01*
X180071219Y-123197861D01*
X180055345Y-123222493D01*
X179978446Y-123341817D01*
X179975596Y-123349646D01*
X179975596Y-123349647D01*
X179960150Y-123392086D01*
X179917022Y-123510578D01*
X179894514Y-123688753D01*
X163636402Y-123688753D01*
X163716483Y-123568222D01*
X163734221Y-123521528D01*
X163777298Y-123408125D01*
X163780257Y-123400336D01*
X163805251Y-123222493D01*
X163805565Y-123200000D01*
X163804861Y-123193716D01*
X163794829Y-123104287D01*
X163785546Y-123021528D01*
X163726485Y-122851927D01*
X163705165Y-122817807D01*
X163642677Y-122717807D01*
X163631316Y-122699625D01*
X163504770Y-122572193D01*
X163497740Y-122567732D01*
X163497738Y-122567730D01*
X163360169Y-122480426D01*
X163360167Y-122480425D01*
X163353136Y-122475963D01*
X163331948Y-122468418D01*
X163191800Y-122418514D01*
X163191801Y-122418514D01*
X163183951Y-122415719D01*
X163175680Y-122414733D01*
X163175677Y-122414732D01*
X163073368Y-122402533D01*
X163005624Y-122394455D01*
X162997346Y-122395325D01*
X162997344Y-122395325D01*
X162930547Y-122402346D01*
X162827017Y-122413227D01*
X162819139Y-122415909D01*
X162819134Y-122415910D01*
X162715754Y-122451104D01*
X162657007Y-122471103D01*
X162641853Y-122480426D01*
X162511799Y-122560436D01*
X162504045Y-122565206D01*
X162498096Y-122571032D01*
X162498093Y-122571034D01*
X162437886Y-122629993D01*
X162375732Y-122690859D01*
X162371221Y-122697858D01*
X162371219Y-122697861D01*
X162315458Y-122784385D01*
X162278446Y-122841817D01*
X162275596Y-122849646D01*
X162275596Y-122849647D01*
X162250341Y-122919036D01*
X162217022Y-123010578D01*
X162215978Y-123018842D01*
X162215639Y-123021528D01*
X162194514Y-123188753D01*
X147000000Y-123188753D01*
X147000000Y-122188753D01*
X160494514Y-122188753D01*
X160495326Y-122197035D01*
X160495326Y-122197039D01*
X160511226Y-122359199D01*
X160512039Y-122367486D01*
X160514667Y-122375385D01*
X160514667Y-122375387D01*
X160553487Y-122492086D01*
X160568726Y-122537896D01*
X160661759Y-122691512D01*
X160667547Y-122697505D01*
X160667548Y-122697507D01*
X160676415Y-122706689D01*
X160786514Y-122820699D01*
X160936789Y-122919036D01*
X160944599Y-122921941D01*
X160944600Y-122921941D01*
X160997028Y-122941439D01*
X161105116Y-122981636D01*
X161113371Y-122982737D01*
X161113373Y-122982738D01*
X161274875Y-123004287D01*
X161274879Y-123004287D01*
X161283130Y-123005388D01*
X161372556Y-122997250D01*
X161453688Y-122989867D01*
X161453691Y-122989866D01*
X161461981Y-122989112D01*
X161502449Y-122975963D01*
X161624855Y-122936191D01*
X161624858Y-122936190D01*
X161632782Y-122933615D01*
X161787044Y-122841657D01*
X161917099Y-122717807D01*
X161970192Y-122637896D01*
X162011873Y-122575161D01*
X162011874Y-122575159D01*
X162016483Y-122568222D01*
X162080257Y-122400336D01*
X162095939Y-122288753D01*
X166494514Y-122288753D01*
X166495326Y-122297035D01*
X166495326Y-122297039D01*
X166507237Y-122418514D01*
X166512039Y-122467486D01*
X166514667Y-122475385D01*
X166514667Y-122475387D01*
X166545385Y-122567730D01*
X166568726Y-122637896D01*
X166661759Y-122791512D01*
X166667547Y-122797505D01*
X166667548Y-122797507D01*
X166692703Y-122823555D01*
X166786514Y-122920699D01*
X166793483Y-122925259D01*
X166793485Y-122925261D01*
X166809754Y-122935907D01*
X166936789Y-123019036D01*
X166944599Y-123021941D01*
X166944600Y-123021941D01*
X166997028Y-123041439D01*
X167105116Y-123081636D01*
X167113371Y-123082737D01*
X167113373Y-123082738D01*
X167274875Y-123104287D01*
X167274879Y-123104287D01*
X167283130Y-123105388D01*
X167372556Y-123097250D01*
X167453688Y-123089867D01*
X167453691Y-123089866D01*
X167461981Y-123089112D01*
X167548996Y-123060839D01*
X167624855Y-123036191D01*
X167624858Y-123036190D01*
X167632782Y-123033615D01*
X167787044Y-122941657D01*
X167917099Y-122817807D01*
X168001443Y-122690859D01*
X168011873Y-122675161D01*
X168011874Y-122675159D01*
X168016483Y-122668222D01*
X168080257Y-122500336D01*
X168095015Y-122395325D01*
X168104600Y-122327128D01*
X168104600Y-122327122D01*
X168105251Y-122322493D01*
X168105565Y-122300000D01*
X168104304Y-122288753D01*
X168093826Y-122195342D01*
X168085546Y-122121528D01*
X168026485Y-121951927D01*
X167968915Y-121859795D01*
X167935730Y-121806689D01*
X167931316Y-121799625D01*
X167804770Y-121672193D01*
X167797740Y-121667732D01*
X167797738Y-121667730D01*
X167660169Y-121580426D01*
X167660167Y-121580425D01*
X167653136Y-121575963D01*
X167631948Y-121568418D01*
X167491800Y-121518514D01*
X167491801Y-121518514D01*
X167483951Y-121515719D01*
X167475680Y-121514733D01*
X167475677Y-121514732D01*
X167373368Y-121502533D01*
X167305624Y-121494455D01*
X167297346Y-121495325D01*
X167297344Y-121495325D01*
X167230547Y-121502346D01*
X167127017Y-121513227D01*
X167119139Y-121515909D01*
X167119134Y-121515910D01*
X167015754Y-121551104D01*
X166957007Y-121571103D01*
X166804045Y-121665206D01*
X166798096Y-121671032D01*
X166798093Y-121671034D01*
X166681682Y-121785032D01*
X166675732Y-121790859D01*
X166671221Y-121797858D01*
X166671219Y-121797861D01*
X166636376Y-121851927D01*
X166578446Y-121941817D01*
X166575596Y-121949646D01*
X166575596Y-121949647D01*
X166549434Y-122021528D01*
X166517022Y-122110578D01*
X166494514Y-122288753D01*
X162095939Y-122288753D01*
X162105251Y-122222493D01*
X162105565Y-122200000D01*
X162104304Y-122188753D01*
X162086475Y-122029814D01*
X162085546Y-122021528D01*
X162026485Y-121851927D01*
X161988326Y-121790859D01*
X161935730Y-121706689D01*
X161931316Y-121699625D01*
X161804770Y-121572193D01*
X161797740Y-121567732D01*
X161797738Y-121567730D01*
X161660169Y-121480426D01*
X161660167Y-121480425D01*
X161653136Y-121475963D01*
X161631948Y-121468418D01*
X161491800Y-121418514D01*
X161491801Y-121418514D01*
X161483951Y-121415719D01*
X161475680Y-121414733D01*
X161475677Y-121414732D01*
X161373368Y-121402533D01*
X161305624Y-121394455D01*
X161297346Y-121395325D01*
X161297344Y-121395325D01*
X161230547Y-121402346D01*
X161127017Y-121413227D01*
X161119139Y-121415909D01*
X161119134Y-121415910D01*
X161015754Y-121451104D01*
X160957007Y-121471103D01*
X160804045Y-121565206D01*
X160798096Y-121571032D01*
X160798093Y-121571034D01*
X160681730Y-121684985D01*
X160675732Y-121690859D01*
X160671221Y-121697858D01*
X160671219Y-121697861D01*
X160611286Y-121790859D01*
X160578446Y-121841817D01*
X160575596Y-121849646D01*
X160575596Y-121849647D01*
X160535506Y-121959795D01*
X160517022Y-122010578D01*
X160494514Y-122188753D01*
X147000000Y-122188753D01*
X147000000Y-122000000D01*
X146000000Y-121000000D01*
X143712965Y-121000000D01*
X143701275Y-120999541D01*
X143643778Y-120995016D01*
X143451744Y-120979903D01*
X143428653Y-120976245D01*
X143371408Y-120962502D01*
X143190984Y-120919185D01*
X143168748Y-120911960D01*
X142942933Y-120818424D01*
X142922101Y-120807810D01*
X142891247Y-120788903D01*
X151570513Y-120788903D01*
X151575660Y-120797819D01*
X151819178Y-120995016D01*
X151825485Y-120999598D01*
X152144187Y-121206566D01*
X152150942Y-121210466D01*
X152489529Y-121382984D01*
X152496657Y-121386157D01*
X152851420Y-121522339D01*
X152858839Y-121524749D01*
X153225907Y-121623104D01*
X153233516Y-121624722D01*
X153608869Y-121684172D01*
X153616604Y-121684985D01*
X153996107Y-121704874D01*
X154003893Y-121704874D01*
X154383396Y-121684985D01*
X154391131Y-121684172D01*
X154766484Y-121624722D01*
X154774093Y-121623104D01*
X155141161Y-121524749D01*
X155148580Y-121522339D01*
X155503343Y-121386157D01*
X155510471Y-121382984D01*
X155849058Y-121210466D01*
X155855813Y-121206566D01*
X156174515Y-120999598D01*
X156180822Y-120995016D01*
X156420107Y-120801247D01*
X156429075Y-120788903D01*
X204570513Y-120788903D01*
X204575660Y-120797819D01*
X204819178Y-120995016D01*
X204825485Y-120999598D01*
X205144187Y-121206566D01*
X205150942Y-121210466D01*
X205489529Y-121382984D01*
X205496657Y-121386157D01*
X205851420Y-121522339D01*
X205858839Y-121524749D01*
X206225907Y-121623104D01*
X206233516Y-121624722D01*
X206608869Y-121684172D01*
X206616604Y-121684985D01*
X206996107Y-121704874D01*
X207003893Y-121704874D01*
X207383396Y-121684985D01*
X207391131Y-121684172D01*
X207766484Y-121624722D01*
X207774093Y-121623104D01*
X208141161Y-121524749D01*
X208148580Y-121522339D01*
X208503343Y-121386157D01*
X208510471Y-121382984D01*
X208849058Y-121210466D01*
X208855813Y-121206566D01*
X209174515Y-120999598D01*
X209180822Y-120995016D01*
X209420107Y-120801247D01*
X209429520Y-120788290D01*
X209425333Y-120778886D01*
X207013871Y-118367424D01*
X207000000Y-118359416D01*
X206986129Y-118367424D01*
X204578521Y-120775032D01*
X204570513Y-120788903D01*
X156429075Y-120788903D01*
X156429520Y-120788290D01*
X156425333Y-120778886D01*
X154013871Y-118367424D01*
X154000000Y-118359416D01*
X153986129Y-118367424D01*
X151578521Y-120775032D01*
X151570513Y-120788903D01*
X142891247Y-120788903D01*
X142713691Y-120680097D01*
X142694775Y-120666353D01*
X142508917Y-120507615D01*
X142492385Y-120491083D01*
X142333647Y-120305225D01*
X142319903Y-120286309D01*
X142192190Y-120077899D01*
X142181576Y-120057067D01*
X142088040Y-119831252D01*
X142080815Y-119809016D01*
X142023755Y-119571349D01*
X142020097Y-119548255D01*
X142000459Y-119298725D01*
X142000000Y-119287035D01*
X142000000Y-118003893D01*
X150295126Y-118003893D01*
X150315015Y-118383396D01*
X150315828Y-118391131D01*
X150375278Y-118766484D01*
X150376896Y-118774093D01*
X150475251Y-119141161D01*
X150477661Y-119148580D01*
X150613843Y-119503343D01*
X150617016Y-119510471D01*
X150789534Y-119849058D01*
X150793434Y-119855813D01*
X151000402Y-120174515D01*
X151004984Y-120180822D01*
X151198753Y-120420107D01*
X151211710Y-120429520D01*
X151221114Y-120425333D01*
X153632576Y-118013871D01*
X153640584Y-118000000D01*
X154359416Y-118000000D01*
X154367424Y-118013871D01*
X156775032Y-120421479D01*
X156788903Y-120429487D01*
X156797819Y-120424340D01*
X156995016Y-120180822D01*
X156999598Y-120174515D01*
X157206566Y-119855813D01*
X157210466Y-119849058D01*
X157382984Y-119510471D01*
X157386157Y-119503343D01*
X157522339Y-119148580D01*
X157524749Y-119141161D01*
X157565586Y-118988753D01*
X160394514Y-118988753D01*
X160395326Y-118997035D01*
X160395326Y-118997039D01*
X160409836Y-119145022D01*
X160412039Y-119167486D01*
X160414667Y-119175385D01*
X160414667Y-119175387D01*
X160455696Y-119298725D01*
X160468726Y-119337896D01*
X160561759Y-119491512D01*
X160567547Y-119497505D01*
X160567548Y-119497507D01*
X160604905Y-119536191D01*
X160686514Y-119620699D01*
X160836789Y-119719036D01*
X160844599Y-119721941D01*
X160844600Y-119721941D01*
X160897028Y-119741439D01*
X161005116Y-119781636D01*
X161013371Y-119782737D01*
X161013373Y-119782738D01*
X161174875Y-119804287D01*
X161174879Y-119804287D01*
X161183130Y-119805388D01*
X161272555Y-119797250D01*
X161353688Y-119789867D01*
X161353691Y-119789866D01*
X161361981Y-119789112D01*
X161400852Y-119776482D01*
X161524855Y-119736191D01*
X161524858Y-119736190D01*
X161532782Y-119733615D01*
X161687044Y-119641657D01*
X161817099Y-119517807D01*
X161881617Y-119420699D01*
X161911873Y-119375161D01*
X161911874Y-119375159D01*
X161916483Y-119368222D01*
X161933451Y-119323555D01*
X161977298Y-119208125D01*
X161980257Y-119200336D01*
X162005251Y-119022493D01*
X162005565Y-119000000D01*
X162004678Y-118992086D01*
X161986475Y-118829814D01*
X161985546Y-118821528D01*
X161974133Y-118788753D01*
X172694514Y-118788753D01*
X172695326Y-118797035D01*
X172695326Y-118797039D01*
X172711226Y-118959199D01*
X172712039Y-118967486D01*
X172714667Y-118975385D01*
X172714667Y-118975387D01*
X172729187Y-119019036D01*
X172768726Y-119137896D01*
X172861759Y-119291512D01*
X172867547Y-119297505D01*
X172867548Y-119297507D01*
X172880448Y-119310865D01*
X172986514Y-119420699D01*
X173136789Y-119519036D01*
X173144599Y-119521941D01*
X173144600Y-119521941D01*
X173197028Y-119541439D01*
X173305116Y-119581636D01*
X173313371Y-119582737D01*
X173313373Y-119582738D01*
X173474875Y-119604287D01*
X173474879Y-119604287D01*
X173483130Y-119605388D01*
X173572555Y-119597250D01*
X173653688Y-119589867D01*
X173653691Y-119589866D01*
X173661981Y-119589112D01*
X173716650Y-119571349D01*
X173824855Y-119536191D01*
X173824858Y-119536190D01*
X173832782Y-119533615D01*
X173987044Y-119441657D01*
X174117099Y-119317807D01*
X174216483Y-119168222D01*
X174223945Y-119148580D01*
X174272050Y-119021941D01*
X174280257Y-119000336D01*
X174305251Y-118822493D01*
X174305565Y-118800000D01*
X174304304Y-118788753D01*
X174291562Y-118675161D01*
X174285546Y-118621528D01*
X174226485Y-118451927D01*
X174203226Y-118414704D01*
X174146269Y-118323555D01*
X174131316Y-118299625D01*
X174004770Y-118172193D01*
X173997740Y-118167732D01*
X173997738Y-118167730D01*
X173860169Y-118080426D01*
X173860167Y-118080425D01*
X173853136Y-118075963D01*
X173831948Y-118068418D01*
X173691800Y-118018514D01*
X173691801Y-118018514D01*
X173683951Y-118015719D01*
X173675680Y-118014733D01*
X173675677Y-118014732D01*
X173573368Y-118002533D01*
X173505624Y-117994455D01*
X173497346Y-117995325D01*
X173497344Y-117995325D01*
X173430547Y-118002346D01*
X173327017Y-118013227D01*
X173319139Y-118015909D01*
X173319134Y-118015910D01*
X173215754Y-118051104D01*
X173157007Y-118071103D01*
X173141853Y-118080426D01*
X173011799Y-118160436D01*
X173004045Y-118165206D01*
X172998096Y-118171032D01*
X172998093Y-118171034D01*
X172886318Y-118280492D01*
X172875732Y-118290859D01*
X172871221Y-118297858D01*
X172871219Y-118297861D01*
X172826389Y-118367424D01*
X172778446Y-118441817D01*
X172775596Y-118449646D01*
X172775596Y-118449647D01*
X172750341Y-118519036D01*
X172717022Y-118610578D01*
X172694514Y-118788753D01*
X161974133Y-118788753D01*
X161934576Y-118675161D01*
X161929225Y-118659795D01*
X161929225Y-118659794D01*
X161926485Y-118651927D01*
X161917718Y-118637896D01*
X161835730Y-118506689D01*
X161831316Y-118499625D01*
X161704770Y-118372193D01*
X161697740Y-118367732D01*
X161697738Y-118367730D01*
X161560169Y-118280426D01*
X161560167Y-118280425D01*
X161553136Y-118275963D01*
X161531948Y-118268418D01*
X161391800Y-118218514D01*
X161391801Y-118218514D01*
X161383951Y-118215719D01*
X161375680Y-118214733D01*
X161375677Y-118214732D01*
X161273368Y-118202533D01*
X161205624Y-118194455D01*
X161197346Y-118195325D01*
X161197344Y-118195325D01*
X161130547Y-118202346D01*
X161027017Y-118213227D01*
X161019139Y-118215909D01*
X161019134Y-118215910D01*
X160915754Y-118251104D01*
X160857007Y-118271103D01*
X160704045Y-118365206D01*
X160698096Y-118371032D01*
X160698093Y-118371034D01*
X160581682Y-118485032D01*
X160575732Y-118490859D01*
X160571221Y-118497858D01*
X160571219Y-118497861D01*
X160546517Y-118536191D01*
X160478446Y-118641817D01*
X160475596Y-118649646D01*
X160475596Y-118649647D01*
X160424966Y-118788753D01*
X160417022Y-118810578D01*
X160394514Y-118988753D01*
X157565586Y-118988753D01*
X157623104Y-118774093D01*
X157624722Y-118766484D01*
X157684172Y-118391131D01*
X157684985Y-118383396D01*
X157704874Y-118003893D01*
X157704874Y-117996107D01*
X157694007Y-117788753D01*
X176794514Y-117788753D01*
X176795326Y-117797035D01*
X176795326Y-117797039D01*
X176810513Y-117951927D01*
X176812039Y-117967486D01*
X176814667Y-117975385D01*
X176814667Y-117975387D01*
X176866097Y-118129993D01*
X176868726Y-118137896D01*
X176961759Y-118291512D01*
X176967547Y-118297505D01*
X176967548Y-118297507D01*
X176974482Y-118304687D01*
X177086514Y-118420699D01*
X177236789Y-118519036D01*
X177244599Y-118521941D01*
X177244600Y-118521941D01*
X177297028Y-118541439D01*
X177405116Y-118581636D01*
X177413371Y-118582737D01*
X177413373Y-118582738D01*
X177574875Y-118604287D01*
X177574879Y-118604287D01*
X177583130Y-118605388D01*
X177672556Y-118597250D01*
X177753688Y-118589867D01*
X177753691Y-118589866D01*
X177761981Y-118589112D01*
X177793927Y-118578732D01*
X177924855Y-118536191D01*
X177924858Y-118536190D01*
X177932782Y-118533615D01*
X178087044Y-118441657D01*
X178217099Y-118317807D01*
X178236402Y-118288753D01*
X182794514Y-118288753D01*
X182795326Y-118297035D01*
X182795326Y-118297039D01*
X182810513Y-118451927D01*
X182812039Y-118467486D01*
X182814667Y-118475385D01*
X182814667Y-118475387D01*
X182866097Y-118629993D01*
X182868726Y-118637896D01*
X182961759Y-118791512D01*
X182967547Y-118797505D01*
X182967548Y-118797507D01*
X182972611Y-118802750D01*
X183086514Y-118920699D01*
X183236789Y-119019036D01*
X183244599Y-119021941D01*
X183244600Y-119021941D01*
X183297028Y-119041439D01*
X183405116Y-119081636D01*
X183413371Y-119082737D01*
X183413373Y-119082738D01*
X183574875Y-119104287D01*
X183574879Y-119104287D01*
X183583130Y-119105388D01*
X183672555Y-119097250D01*
X183753688Y-119089867D01*
X183753691Y-119089866D01*
X183761981Y-119089112D01*
X183793927Y-119078732D01*
X183924855Y-119036191D01*
X183924858Y-119036190D01*
X183932782Y-119033615D01*
X184087044Y-118941657D01*
X184217099Y-118817807D01*
X184316483Y-118668222D01*
X184326514Y-118641817D01*
X184372050Y-118521941D01*
X184380257Y-118500336D01*
X184398429Y-118371034D01*
X184404600Y-118327128D01*
X184404600Y-118327122D01*
X184405251Y-118322493D01*
X184405565Y-118300000D01*
X184404861Y-118293716D01*
X184391099Y-118171034D01*
X184385546Y-118121528D01*
X184344581Y-118003893D01*
X203295126Y-118003893D01*
X203315015Y-118383396D01*
X203315828Y-118391131D01*
X203375278Y-118766484D01*
X203376896Y-118774093D01*
X203475251Y-119141161D01*
X203477661Y-119148580D01*
X203613843Y-119503343D01*
X203617016Y-119510471D01*
X203789534Y-119849058D01*
X203793434Y-119855813D01*
X204000402Y-120174515D01*
X204004984Y-120180822D01*
X204198753Y-120420107D01*
X204211710Y-120429520D01*
X204221114Y-120425333D01*
X206632576Y-118013871D01*
X206640584Y-118000000D01*
X206632576Y-117986129D01*
X204224968Y-115578521D01*
X204211097Y-115570513D01*
X204202181Y-115575660D01*
X204004984Y-115819178D01*
X204000402Y-115825485D01*
X203793434Y-116144187D01*
X203789534Y-116150942D01*
X203617016Y-116489529D01*
X203613843Y-116496657D01*
X203477661Y-116851420D01*
X203475251Y-116858839D01*
X203376896Y-117225907D01*
X203375278Y-117233516D01*
X203315828Y-117608869D01*
X203315015Y-117616604D01*
X203295126Y-117996107D01*
X203295126Y-118003893D01*
X184344581Y-118003893D01*
X184326485Y-117951927D01*
X184231316Y-117799625D01*
X184104770Y-117672193D01*
X184097740Y-117667732D01*
X184097738Y-117667730D01*
X183960169Y-117580426D01*
X183960167Y-117580425D01*
X183953136Y-117575963D01*
X183931948Y-117568418D01*
X183791800Y-117518514D01*
X183791801Y-117518514D01*
X183783951Y-117515719D01*
X183775680Y-117514733D01*
X183775677Y-117514732D01*
X183673368Y-117502533D01*
X183605624Y-117494455D01*
X183597346Y-117495325D01*
X183597344Y-117495325D01*
X183530547Y-117502346D01*
X183427017Y-117513227D01*
X183419139Y-117515909D01*
X183419134Y-117515910D01*
X183343504Y-117541657D01*
X183257007Y-117571103D01*
X183104045Y-117665206D01*
X183098096Y-117671032D01*
X183098093Y-117671034D01*
X183063783Y-117704633D01*
X182975732Y-117790859D01*
X182971221Y-117797858D01*
X182971219Y-117797861D01*
X182955345Y-117822493D01*
X182878446Y-117941817D01*
X182875596Y-117949646D01*
X182875596Y-117949647D01*
X182850531Y-118018514D01*
X182817022Y-118110578D01*
X182794514Y-118288753D01*
X178236402Y-118288753D01*
X178316483Y-118168222D01*
X178334221Y-118121528D01*
X178374341Y-118015910D01*
X178380257Y-118000336D01*
X178405251Y-117822493D01*
X178405565Y-117800000D01*
X178404861Y-117793716D01*
X178394829Y-117704287D01*
X178385546Y-117621528D01*
X178326485Y-117451927D01*
X178305165Y-117417807D01*
X178235730Y-117306689D01*
X178231316Y-117299625D01*
X178104770Y-117172193D01*
X178097740Y-117167732D01*
X178097738Y-117167730D01*
X177960169Y-117080426D01*
X177960167Y-117080425D01*
X177953136Y-117075963D01*
X177931948Y-117068418D01*
X177791800Y-117018514D01*
X177791801Y-117018514D01*
X177783951Y-117015719D01*
X177775680Y-117014733D01*
X177775677Y-117014732D01*
X177673368Y-117002533D01*
X177605624Y-116994455D01*
X177597346Y-116995325D01*
X177597344Y-116995325D01*
X177530547Y-117002346D01*
X177427017Y-117013227D01*
X177419139Y-117015909D01*
X177419134Y-117015910D01*
X177315754Y-117051104D01*
X177257007Y-117071103D01*
X177104045Y-117165206D01*
X177098096Y-117171032D01*
X177098093Y-117171034D01*
X177029816Y-117237896D01*
X176975732Y-117290859D01*
X176971221Y-117297858D01*
X176971219Y-117297861D01*
X176965530Y-117306689D01*
X176878446Y-117441817D01*
X176875596Y-117449646D01*
X176875596Y-117449647D01*
X176850531Y-117518514D01*
X176817022Y-117610578D01*
X176815978Y-117618842D01*
X176815639Y-117621528D01*
X176794514Y-117788753D01*
X157694007Y-117788753D01*
X157684985Y-117616604D01*
X157684172Y-117608869D01*
X157624722Y-117233516D01*
X157623104Y-117225907D01*
X157532764Y-116888753D01*
X159494514Y-116888753D01*
X159495326Y-116897035D01*
X159495326Y-116897039D01*
X159508970Y-117036191D01*
X159512039Y-117067486D01*
X159514667Y-117075385D01*
X159514667Y-117075387D01*
X159545385Y-117167730D01*
X159568726Y-117237896D01*
X159661759Y-117391512D01*
X159786514Y-117520699D01*
X159936789Y-117619036D01*
X159944599Y-117621941D01*
X159944600Y-117621941D01*
X159994730Y-117640584D01*
X160105116Y-117681636D01*
X160113371Y-117682737D01*
X160113373Y-117682738D01*
X160274875Y-117704287D01*
X160274879Y-117704287D01*
X160283130Y-117705388D01*
X160372556Y-117697250D01*
X160453688Y-117689867D01*
X160453691Y-117689866D01*
X160461981Y-117689112D01*
X160548996Y-117660839D01*
X160624855Y-117636191D01*
X160624858Y-117636190D01*
X160632782Y-117633615D01*
X160787044Y-117541657D01*
X160917099Y-117417807D01*
X161001443Y-117290859D01*
X161011873Y-117275161D01*
X161011874Y-117275159D01*
X161016483Y-117268222D01*
X161080257Y-117100336D01*
X161095015Y-116995325D01*
X161104600Y-116927128D01*
X161104600Y-116927122D01*
X161105251Y-116922493D01*
X161105565Y-116900000D01*
X161104304Y-116888753D01*
X161093396Y-116791512D01*
X161085546Y-116721528D01*
X161026485Y-116551927D01*
X160999115Y-116508125D01*
X160935730Y-116406689D01*
X160931316Y-116399625D01*
X160821215Y-116288753D01*
X163294514Y-116288753D01*
X163295326Y-116297035D01*
X163295326Y-116297039D01*
X163306908Y-116415159D01*
X163312039Y-116467486D01*
X163314667Y-116475385D01*
X163314667Y-116475387D01*
X163366097Y-116629993D01*
X163368726Y-116637896D01*
X163461759Y-116791512D01*
X163586514Y-116920699D01*
X163593483Y-116925259D01*
X163593485Y-116925261D01*
X163609754Y-116935907D01*
X163736789Y-117019036D01*
X163744599Y-117021941D01*
X163744600Y-117021941D01*
X163797028Y-117041439D01*
X163905116Y-117081636D01*
X163913371Y-117082737D01*
X163913373Y-117082738D01*
X164074875Y-117104287D01*
X164074879Y-117104287D01*
X164083130Y-117105388D01*
X164172556Y-117097250D01*
X164253688Y-117089867D01*
X164253691Y-117089866D01*
X164261981Y-117089112D01*
X164302449Y-117075963D01*
X164424855Y-117036191D01*
X164424858Y-117036190D01*
X164432782Y-117033615D01*
X164587044Y-116941657D01*
X164717099Y-116817807D01*
X164782851Y-116718842D01*
X164811873Y-116675161D01*
X164811874Y-116675159D01*
X164816483Y-116668222D01*
X164880257Y-116500336D01*
X164905251Y-116322493D01*
X164905565Y-116300000D01*
X164904304Y-116288753D01*
X164892394Y-116182578D01*
X164885546Y-116121528D01*
X164826485Y-115951927D01*
X164731316Y-115799625D01*
X164604770Y-115672193D01*
X164597740Y-115667732D01*
X164597738Y-115667730D01*
X164460169Y-115580426D01*
X164460167Y-115580425D01*
X164453136Y-115575963D01*
X164431948Y-115568418D01*
X164291800Y-115518514D01*
X164291801Y-115518514D01*
X164283951Y-115515719D01*
X164275680Y-115514733D01*
X164275677Y-115514732D01*
X164173368Y-115502533D01*
X164105624Y-115494455D01*
X164097346Y-115495325D01*
X164097344Y-115495325D01*
X164030547Y-115502346D01*
X163927017Y-115513227D01*
X163919139Y-115515909D01*
X163919134Y-115515910D01*
X163815754Y-115551104D01*
X163757007Y-115571103D01*
X163604045Y-115665206D01*
X163598096Y-115671032D01*
X163598093Y-115671034D01*
X163527159Y-115740498D01*
X163475732Y-115790859D01*
X163471221Y-115797858D01*
X163471219Y-115797861D01*
X163453417Y-115825485D01*
X163378446Y-115941817D01*
X163375596Y-115949646D01*
X163375596Y-115949647D01*
X163321398Y-116098556D01*
X163317022Y-116110578D01*
X163294514Y-116288753D01*
X160821215Y-116288753D01*
X160804770Y-116272193D01*
X160797740Y-116267732D01*
X160797738Y-116267730D01*
X160660169Y-116180426D01*
X160660167Y-116180425D01*
X160653136Y-116175963D01*
X160644973Y-116173056D01*
X160523534Y-116129814D01*
X160483951Y-116115719D01*
X160475680Y-116114733D01*
X160475677Y-116114732D01*
X160373368Y-116102533D01*
X160305624Y-116094455D01*
X160297346Y-116095325D01*
X160297344Y-116095325D01*
X160230547Y-116102346D01*
X160127017Y-116113227D01*
X160119139Y-116115909D01*
X160119134Y-116115910D01*
X160036072Y-116144187D01*
X159957007Y-116171103D01*
X159941853Y-116180426D01*
X159832735Y-116247556D01*
X159804045Y-116265206D01*
X159798096Y-116271032D01*
X159798093Y-116271034D01*
X159771538Y-116297039D01*
X159675732Y-116390859D01*
X159671221Y-116397858D01*
X159671219Y-116397861D01*
X159645749Y-116437383D01*
X159578446Y-116541817D01*
X159575596Y-116549646D01*
X159575596Y-116549647D01*
X159546353Y-116629993D01*
X159517022Y-116710578D01*
X159494514Y-116888753D01*
X157532764Y-116888753D01*
X157524749Y-116858839D01*
X157522339Y-116851420D01*
X157386157Y-116496657D01*
X157382984Y-116489529D01*
X157210466Y-116150942D01*
X157206566Y-116144187D01*
X156999598Y-115825485D01*
X156995016Y-115819178D01*
X156801247Y-115579893D01*
X156788290Y-115570480D01*
X156778886Y-115574667D01*
X154367424Y-117986129D01*
X154359416Y-118000000D01*
X153640584Y-118000000D01*
X153632576Y-117986129D01*
X151224968Y-115578521D01*
X151211097Y-115570513D01*
X151202181Y-115575660D01*
X151004984Y-115819178D01*
X151000402Y-115825485D01*
X150793434Y-116144187D01*
X150789534Y-116150942D01*
X150617016Y-116489529D01*
X150613843Y-116496657D01*
X150477661Y-116851420D01*
X150475251Y-116858839D01*
X150376896Y-117225907D01*
X150375278Y-117233516D01*
X150315828Y-117608869D01*
X150315015Y-117616604D01*
X150295126Y-117996107D01*
X150295126Y-118003893D01*
X142000000Y-118003893D01*
X142000000Y-116692247D01*
X142000425Y-116681006D01*
X142018857Y-116437383D01*
X142022239Y-116415159D01*
X142075845Y-116182578D01*
X142082532Y-116161115D01*
X142099296Y-116118842D01*
X142170524Y-115939235D01*
X142180363Y-115919027D01*
X142180544Y-115918718D01*
X142300728Y-115712924D01*
X142313495Y-115694426D01*
X142463220Y-115509120D01*
X142479296Y-115492142D01*
X142653804Y-115334672D01*
X142673096Y-115319929D01*
X142841568Y-115211710D01*
X151570480Y-115211710D01*
X151574667Y-115221114D01*
X153986129Y-117632576D01*
X154000000Y-117640584D01*
X154013871Y-117632576D01*
X156421479Y-115224968D01*
X156429487Y-115211097D01*
X156424340Y-115202181D01*
X156180822Y-115004984D01*
X156174515Y-115000402D01*
X155855813Y-114793434D01*
X155849058Y-114789534D01*
X155510471Y-114617016D01*
X155503343Y-114613843D01*
X155177475Y-114488753D01*
X162094514Y-114488753D01*
X162095326Y-114497035D01*
X162095326Y-114497039D01*
X162106779Y-114613843D01*
X162112039Y-114667486D01*
X162114667Y-114675385D01*
X162114667Y-114675387D01*
X162152638Y-114789534D01*
X162168726Y-114837896D01*
X162261759Y-114991512D01*
X162267547Y-114997505D01*
X162267548Y-114997507D01*
X162324137Y-115056106D01*
X162386514Y-115120699D01*
X162393483Y-115125259D01*
X162393485Y-115125261D01*
X162437498Y-115154062D01*
X162536789Y-115219036D01*
X162544599Y-115221941D01*
X162544600Y-115221941D01*
X162597028Y-115241439D01*
X162705116Y-115281636D01*
X162713371Y-115282737D01*
X162713373Y-115282738D01*
X162874875Y-115304287D01*
X162874879Y-115304287D01*
X162883130Y-115305388D01*
X162972556Y-115297250D01*
X163053688Y-115289867D01*
X163053691Y-115289866D01*
X163061981Y-115289112D01*
X163093927Y-115278732D01*
X163224855Y-115236191D01*
X163224858Y-115236190D01*
X163232782Y-115233615D01*
X163387044Y-115141657D01*
X163517099Y-115017807D01*
X163616483Y-114868222D01*
X163680257Y-114700336D01*
X163705251Y-114522493D01*
X163705565Y-114500000D01*
X163704429Y-114489867D01*
X163695237Y-114407923D01*
X163685546Y-114321528D01*
X163626485Y-114151927D01*
X163531316Y-113999625D01*
X163404770Y-113872193D01*
X163397740Y-113867732D01*
X163397738Y-113867730D01*
X163260169Y-113780426D01*
X163260167Y-113780425D01*
X163253136Y-113775963D01*
X163231948Y-113768418D01*
X163115991Y-113727128D01*
X163083951Y-113715719D01*
X163075680Y-113714733D01*
X163075677Y-113714732D01*
X162952126Y-113700000D01*
X162905624Y-113694455D01*
X162897346Y-113695325D01*
X162897344Y-113695325D01*
X162830547Y-113702346D01*
X162727017Y-113713227D01*
X162719139Y-113715909D01*
X162719134Y-113715910D01*
X162615754Y-113751104D01*
X162557007Y-113771103D01*
X162404045Y-113865206D01*
X162398096Y-113871032D01*
X162398093Y-113871034D01*
X162368171Y-113900336D01*
X162275732Y-113990859D01*
X162271221Y-113997858D01*
X162271219Y-113997861D01*
X162225875Y-114068222D01*
X162178446Y-114141817D01*
X162175596Y-114149646D01*
X162175596Y-114149647D01*
X162153315Y-114210865D01*
X162117022Y-114310578D01*
X162094514Y-114488753D01*
X155177475Y-114488753D01*
X155148580Y-114477661D01*
X155141161Y-114475251D01*
X154774093Y-114376896D01*
X154766484Y-114375278D01*
X154391131Y-114315828D01*
X154383396Y-114315015D01*
X154003893Y-114295126D01*
X153996107Y-114295126D01*
X153616604Y-114315015D01*
X153608869Y-114315828D01*
X153233516Y-114375278D01*
X153225907Y-114376896D01*
X152858839Y-114475251D01*
X152851420Y-114477661D01*
X152496657Y-114613843D01*
X152489529Y-114617016D01*
X152150942Y-114789534D01*
X152144187Y-114793434D01*
X151825485Y-115000402D01*
X151819178Y-115004984D01*
X151579893Y-115198753D01*
X151570480Y-115211710D01*
X142841568Y-115211710D01*
X142870485Y-115193135D01*
X142891914Y-115181721D01*
X143107268Y-115088671D01*
X143130269Y-115080888D01*
X143357878Y-115024052D01*
X143381835Y-115020108D01*
X143566834Y-115004984D01*
X143621746Y-115000495D01*
X143633885Y-115000000D01*
X146000000Y-115000000D01*
X146655624Y-113688753D01*
X166594514Y-113688753D01*
X166595326Y-113697035D01*
X166595326Y-113697039D01*
X166611226Y-113859199D01*
X166612039Y-113867486D01*
X166614667Y-113875385D01*
X166614667Y-113875387D01*
X166651141Y-113985032D01*
X166668726Y-114037896D01*
X166761759Y-114191512D01*
X166886514Y-114320699D01*
X167036789Y-114419036D01*
X167044599Y-114421941D01*
X167044600Y-114421941D01*
X167097028Y-114441439D01*
X167205116Y-114481636D01*
X167213371Y-114482737D01*
X167213373Y-114482738D01*
X167374875Y-114504287D01*
X167374879Y-114504287D01*
X167383130Y-114505388D01*
X167474874Y-114497039D01*
X167553688Y-114489867D01*
X167553691Y-114489866D01*
X167561981Y-114489112D01*
X167584990Y-114481636D01*
X167724855Y-114436191D01*
X167724858Y-114436190D01*
X167732782Y-114433615D01*
X167887044Y-114341657D01*
X168017099Y-114217807D01*
X168116483Y-114068222D01*
X168145871Y-113990859D01*
X168177298Y-113908125D01*
X168180257Y-113900336D01*
X168198129Y-113773169D01*
X168204600Y-113727128D01*
X168204600Y-113727122D01*
X168205251Y-113722493D01*
X168205565Y-113700000D01*
X168204944Y-113694455D01*
X168186475Y-113529814D01*
X168185546Y-113521528D01*
X168126485Y-113351927D01*
X168115043Y-113333615D01*
X168047335Y-113225261D01*
X168031316Y-113199625D01*
X167904770Y-113072193D01*
X167897740Y-113067732D01*
X167897738Y-113067730D01*
X167760169Y-112980426D01*
X167760167Y-112980425D01*
X167753136Y-112975963D01*
X167731948Y-112968418D01*
X167591800Y-112918514D01*
X167591801Y-112918514D01*
X167583951Y-112915719D01*
X167575680Y-112914733D01*
X167575677Y-112914732D01*
X167473368Y-112902533D01*
X167405624Y-112894455D01*
X167397346Y-112895325D01*
X167397344Y-112895325D01*
X167330547Y-112902346D01*
X167227017Y-112913227D01*
X167219139Y-112915909D01*
X167219134Y-112915910D01*
X167115754Y-112951104D01*
X167057007Y-112971103D01*
X166904045Y-113065206D01*
X166898096Y-113071032D01*
X166898093Y-113071034D01*
X166781682Y-113185032D01*
X166775732Y-113190859D01*
X166771221Y-113197858D01*
X166771219Y-113197861D01*
X166756501Y-113220699D01*
X166678446Y-113341817D01*
X166675596Y-113349646D01*
X166675596Y-113349647D01*
X166671903Y-113359795D01*
X166617022Y-113510578D01*
X166594514Y-113688753D01*
X146655624Y-113688753D01*
X147000000Y-113000000D01*
X147000000Y-112588753D01*
X160594514Y-112588753D01*
X160595326Y-112597035D01*
X160595326Y-112597039D01*
X160611226Y-112759199D01*
X160612039Y-112767486D01*
X160614667Y-112775385D01*
X160614667Y-112775387D01*
X160666097Y-112929993D01*
X160668726Y-112937896D01*
X160761759Y-113091512D01*
X160886514Y-113220699D01*
X161036789Y-113319036D01*
X161044599Y-113321941D01*
X161044600Y-113321941D01*
X161097028Y-113341439D01*
X161205116Y-113381636D01*
X161213371Y-113382737D01*
X161213373Y-113382738D01*
X161374875Y-113404287D01*
X161374879Y-113404287D01*
X161383130Y-113405388D01*
X161472555Y-113397250D01*
X161553688Y-113389867D01*
X161553691Y-113389866D01*
X161561981Y-113389112D01*
X161652209Y-113359795D01*
X161724855Y-113336191D01*
X161724858Y-113336190D01*
X161732782Y-113333615D01*
X161887044Y-113241657D01*
X162017099Y-113117807D01*
X162111340Y-112975963D01*
X162111873Y-112975161D01*
X162111874Y-112975159D01*
X162116483Y-112968222D01*
X162135366Y-112918514D01*
X162177298Y-112808125D01*
X162180257Y-112800336D01*
X162205251Y-112622493D01*
X162205565Y-112600000D01*
X162204304Y-112588753D01*
X162194829Y-112504287D01*
X162185546Y-112421528D01*
X162126485Y-112251927D01*
X162105165Y-112217807D01*
X162035730Y-112106689D01*
X162031316Y-112099625D01*
X161904770Y-111972193D01*
X161897740Y-111967732D01*
X161897738Y-111967730D01*
X161760169Y-111880426D01*
X161760167Y-111880425D01*
X161753136Y-111875963D01*
X161731948Y-111868418D01*
X161591800Y-111818514D01*
X161591801Y-111818514D01*
X161583951Y-111815719D01*
X161575680Y-111814733D01*
X161575677Y-111814732D01*
X161473368Y-111802533D01*
X161405624Y-111794455D01*
X161397346Y-111795325D01*
X161397344Y-111795325D01*
X161330547Y-111802346D01*
X161227017Y-111813227D01*
X161219139Y-111815909D01*
X161219134Y-111815910D01*
X161115754Y-111851104D01*
X161057007Y-111871103D01*
X160904045Y-111965206D01*
X160898096Y-111971032D01*
X160898093Y-111971034D01*
X160837886Y-112029993D01*
X160775732Y-112090859D01*
X160771221Y-112097858D01*
X160771219Y-112097861D01*
X160765530Y-112106689D01*
X160678446Y-112241817D01*
X160675596Y-112249646D01*
X160675596Y-112249647D01*
X160671903Y-112259795D01*
X160617022Y-112410578D01*
X160615978Y-112418842D01*
X160615639Y-112421528D01*
X160594514Y-112588753D01*
X147000000Y-112588753D01*
X147000000Y-111688753D01*
X180994514Y-111688753D01*
X180995326Y-111697035D01*
X180995326Y-111697039D01*
X181007237Y-111818514D01*
X181012039Y-111867486D01*
X181014667Y-111875385D01*
X181014667Y-111875387D01*
X181045385Y-111967730D01*
X181068726Y-112037896D01*
X181161759Y-112191512D01*
X181286514Y-112320699D01*
X181436789Y-112419036D01*
X181444599Y-112421941D01*
X181444600Y-112421941D01*
X181497028Y-112441439D01*
X181605116Y-112481636D01*
X181613371Y-112482737D01*
X181613373Y-112482738D01*
X181774875Y-112504287D01*
X181774879Y-112504287D01*
X181783130Y-112505388D01*
X181872555Y-112497250D01*
X181953688Y-112489867D01*
X181953691Y-112489866D01*
X181961981Y-112489112D01*
X181993927Y-112478732D01*
X182124855Y-112436191D01*
X182124858Y-112436190D01*
X182132782Y-112433615D01*
X182287044Y-112341657D01*
X182417099Y-112217807D01*
X182501443Y-112090859D01*
X182511873Y-112075161D01*
X182511874Y-112075159D01*
X182516483Y-112068222D01*
X182580257Y-111900336D01*
X182595015Y-111795325D01*
X182604600Y-111727128D01*
X182604600Y-111727122D01*
X182605251Y-111722493D01*
X182605565Y-111700000D01*
X182604304Y-111688753D01*
X182586475Y-111529814D01*
X182585546Y-111521528D01*
X182526485Y-111351927D01*
X182515043Y-111333615D01*
X182447335Y-111225261D01*
X182431316Y-111199625D01*
X182304770Y-111072193D01*
X182297740Y-111067732D01*
X182297738Y-111067730D01*
X182160169Y-110980426D01*
X182160167Y-110980425D01*
X182153136Y-110975963D01*
X182131948Y-110968418D01*
X181991800Y-110918514D01*
X181991801Y-110918514D01*
X181983951Y-110915719D01*
X181975680Y-110914733D01*
X181975677Y-110914732D01*
X181873368Y-110902533D01*
X181805624Y-110894455D01*
X181797346Y-110895325D01*
X181797344Y-110895325D01*
X181730547Y-110902346D01*
X181627017Y-110913227D01*
X181619139Y-110915909D01*
X181619134Y-110915910D01*
X181515754Y-110951104D01*
X181457007Y-110971103D01*
X181304045Y-111065206D01*
X181298096Y-111071032D01*
X181298093Y-111071034D01*
X181185150Y-111181636D01*
X181175732Y-111190859D01*
X181171221Y-111197858D01*
X181171219Y-111197861D01*
X181156501Y-111220699D01*
X181078446Y-111341817D01*
X181075596Y-111349646D01*
X181075596Y-111349647D01*
X181071903Y-111359795D01*
X181017022Y-111510578D01*
X180994514Y-111688753D01*
X147000000Y-111688753D01*
X147000000Y-110588753D01*
X160594514Y-110588753D01*
X160595326Y-110597035D01*
X160595326Y-110597039D01*
X160611226Y-110759199D01*
X160612039Y-110767486D01*
X160614667Y-110775385D01*
X160614667Y-110775387D01*
X160663005Y-110920699D01*
X160668726Y-110937896D01*
X160761759Y-111091512D01*
X160767547Y-111097505D01*
X160767548Y-111097507D01*
X160824137Y-111156106D01*
X160886514Y-111220699D01*
X161036789Y-111319036D01*
X161044599Y-111321941D01*
X161044600Y-111321941D01*
X161097028Y-111341439D01*
X161205116Y-111381636D01*
X161213371Y-111382737D01*
X161213373Y-111382738D01*
X161374875Y-111404287D01*
X161374879Y-111404287D01*
X161383130Y-111405388D01*
X161472556Y-111397250D01*
X161553688Y-111389867D01*
X161553691Y-111389866D01*
X161561981Y-111389112D01*
X161652209Y-111359795D01*
X161724855Y-111336191D01*
X161724858Y-111336190D01*
X161732782Y-111333615D01*
X161887044Y-111241657D01*
X162017099Y-111117807D01*
X162111340Y-110975963D01*
X162111873Y-110975161D01*
X162111874Y-110975159D01*
X162116483Y-110968222D01*
X162134536Y-110920699D01*
X162177298Y-110808125D01*
X162180257Y-110800336D01*
X162198824Y-110668222D01*
X162204600Y-110627128D01*
X162204600Y-110627122D01*
X162205251Y-110622493D01*
X162205565Y-110600000D01*
X162204304Y-110588753D01*
X162194386Y-110500336D01*
X162185546Y-110421528D01*
X162126485Y-110251927D01*
X162115043Y-110233615D01*
X162047335Y-110125261D01*
X162031316Y-110099625D01*
X161904770Y-109972193D01*
X161897740Y-109967732D01*
X161897738Y-109967730D01*
X161760169Y-109880426D01*
X161760167Y-109880425D01*
X161753136Y-109875963D01*
X161731948Y-109868418D01*
X161591800Y-109818514D01*
X161591801Y-109818514D01*
X161583951Y-109815719D01*
X161575680Y-109814733D01*
X161575677Y-109814732D01*
X161448981Y-109799625D01*
X161405624Y-109794455D01*
X161397346Y-109795325D01*
X161397344Y-109795325D01*
X161330547Y-109802346D01*
X161227017Y-109813227D01*
X161219139Y-109815909D01*
X161219134Y-109815910D01*
X161115754Y-109851104D01*
X161057007Y-109871103D01*
X161041853Y-109880426D01*
X160925630Y-109951927D01*
X160904045Y-109965206D01*
X160898096Y-109971032D01*
X160898093Y-109971034D01*
X160837886Y-110029993D01*
X160775732Y-110090859D01*
X160771221Y-110097858D01*
X160771219Y-110097861D01*
X160765530Y-110106689D01*
X160678446Y-110241817D01*
X160675596Y-110249646D01*
X160675596Y-110249647D01*
X160624966Y-110388753D01*
X160617022Y-110410578D01*
X160615978Y-110418842D01*
X160615639Y-110421528D01*
X160594514Y-110588753D01*
X147000000Y-110588753D01*
X147000000Y-109688753D01*
X179294514Y-109688753D01*
X179295326Y-109697035D01*
X179295326Y-109697039D01*
X179311226Y-109859199D01*
X179312039Y-109867486D01*
X179314667Y-109875385D01*
X179314667Y-109875387D01*
X179345385Y-109967730D01*
X179368726Y-110037896D01*
X179461759Y-110191512D01*
X179467547Y-110197505D01*
X179467548Y-110197507D01*
X179503574Y-110234813D01*
X179586514Y-110320699D01*
X179736789Y-110419036D01*
X179744599Y-110421941D01*
X179744600Y-110421941D01*
X179797028Y-110441439D01*
X179905116Y-110481636D01*
X179913371Y-110482737D01*
X179913373Y-110482738D01*
X180074875Y-110504287D01*
X180074879Y-110504287D01*
X180083130Y-110505388D01*
X180172556Y-110497250D01*
X180253688Y-110489867D01*
X180253691Y-110489866D01*
X180261981Y-110489112D01*
X180328539Y-110467486D01*
X180424855Y-110436191D01*
X180424858Y-110436190D01*
X180432782Y-110433615D01*
X180587044Y-110341657D01*
X180717099Y-110217807D01*
X180801443Y-110090859D01*
X180811873Y-110075161D01*
X180811874Y-110075159D01*
X180816483Y-110068222D01*
X180823266Y-110050366D01*
X180868381Y-109987810D01*
X180938731Y-109956193D01*
X181015464Y-109963986D01*
X181069733Y-109999770D01*
X181186514Y-110120699D01*
X181336789Y-110219036D01*
X181344599Y-110221941D01*
X181344600Y-110221941D01*
X181397028Y-110241439D01*
X181505116Y-110281636D01*
X181513371Y-110282737D01*
X181513373Y-110282738D01*
X181674875Y-110304287D01*
X181674879Y-110304287D01*
X181683130Y-110305388D01*
X181772556Y-110297250D01*
X181853688Y-110289867D01*
X181853691Y-110289866D01*
X181861981Y-110289112D01*
X181952209Y-110259795D01*
X182024855Y-110236191D01*
X182024858Y-110236190D01*
X182032782Y-110233615D01*
X182187044Y-110141657D01*
X182317099Y-110017807D01*
X182411340Y-109875963D01*
X182411873Y-109875161D01*
X182411874Y-109875159D01*
X182416483Y-109868222D01*
X182435366Y-109818514D01*
X182477298Y-109708125D01*
X182480257Y-109700336D01*
X182493700Y-109604683D01*
X182504600Y-109527128D01*
X182504600Y-109527122D01*
X182505251Y-109522493D01*
X182505565Y-109500000D01*
X182504944Y-109494455D01*
X182488700Y-109349647D01*
X182485546Y-109321528D01*
X182426485Y-109151927D01*
X182367056Y-109056820D01*
X182335730Y-109006689D01*
X182331316Y-108999625D01*
X182204770Y-108872193D01*
X182197740Y-108867732D01*
X182197738Y-108867730D01*
X182060169Y-108780426D01*
X182060167Y-108780425D01*
X182053136Y-108775963D01*
X182031948Y-108768418D01*
X181940646Y-108735907D01*
X181883951Y-108715719D01*
X181875680Y-108714733D01*
X181875677Y-108714732D01*
X181773368Y-108702533D01*
X181705624Y-108694455D01*
X181697346Y-108695325D01*
X181697344Y-108695325D01*
X181630547Y-108702346D01*
X181527017Y-108713227D01*
X181519139Y-108715909D01*
X181519134Y-108715910D01*
X181430964Y-108745926D01*
X181357007Y-108771103D01*
X181293150Y-108810388D01*
X181226849Y-108851177D01*
X181204045Y-108865206D01*
X181198096Y-108871032D01*
X181198093Y-108871034D01*
X181095906Y-108971103D01*
X181075732Y-108990859D01*
X181071221Y-108997858D01*
X181071219Y-108997861D01*
X181026192Y-109067730D01*
X180978446Y-109141817D01*
X180975596Y-109149648D01*
X180971893Y-109157107D01*
X180969758Y-109156047D01*
X180932822Y-109208792D01*
X180862919Y-109241384D01*
X180786085Y-109234659D01*
X180734258Y-109196704D01*
X180731316Y-109199625D01*
X180610638Y-109078102D01*
X180604770Y-109072193D01*
X180597740Y-109067732D01*
X180597738Y-109067730D01*
X180580546Y-109056820D01*
X180528340Y-109000046D01*
X180511515Y-108924776D01*
X180534579Y-108851177D01*
X180584090Y-108803030D01*
X180679884Y-108745926D01*
X180679889Y-108745922D01*
X180687044Y-108741657D01*
X180817099Y-108617807D01*
X180916483Y-108468222D01*
X180980257Y-108300336D01*
X180993700Y-108204683D01*
X181004600Y-108127128D01*
X181004600Y-108127122D01*
X181005251Y-108122493D01*
X181005565Y-108100000D01*
X181004304Y-108088753D01*
X180986475Y-107929814D01*
X180985546Y-107921528D01*
X180926485Y-107751927D01*
X180831316Y-107599625D01*
X180704770Y-107472193D01*
X180697740Y-107467732D01*
X180697738Y-107467730D01*
X180560169Y-107380426D01*
X180560167Y-107380425D01*
X180553136Y-107375963D01*
X180531948Y-107368418D01*
X180391800Y-107318514D01*
X180391801Y-107318514D01*
X180383951Y-107315719D01*
X180375680Y-107314733D01*
X180375677Y-107314732D01*
X180273368Y-107302533D01*
X180205624Y-107294455D01*
X180197346Y-107295325D01*
X180197344Y-107295325D01*
X180130547Y-107302346D01*
X180027017Y-107313227D01*
X180019139Y-107315909D01*
X180019134Y-107315910D01*
X179915754Y-107351104D01*
X179857007Y-107371103D01*
X179704045Y-107465206D01*
X179698096Y-107471032D01*
X179698093Y-107471034D01*
X179581682Y-107585032D01*
X179575732Y-107590859D01*
X179571221Y-107597858D01*
X179571219Y-107597861D01*
X179565530Y-107606689D01*
X179478446Y-107741817D01*
X179475596Y-107749646D01*
X179475596Y-107749647D01*
X179471903Y-107759795D01*
X179417022Y-107910578D01*
X179394514Y-108088753D01*
X179395326Y-108097035D01*
X179395326Y-108097039D01*
X179405945Y-108205336D01*
X179412039Y-108267486D01*
X179414667Y-108275385D01*
X179414667Y-108275387D01*
X179437124Y-108342896D01*
X179468726Y-108437896D01*
X179561759Y-108591512D01*
X179686514Y-108720699D01*
X179693480Y-108725258D01*
X179693488Y-108725264D01*
X179721444Y-108743557D01*
X179772853Y-108801054D01*
X179788626Y-108876552D01*
X179764536Y-108949821D01*
X179717932Y-108995142D01*
X179713513Y-108997861D01*
X179604045Y-109065206D01*
X179598096Y-109071032D01*
X179598093Y-109071034D01*
X179481682Y-109185032D01*
X179475732Y-109190859D01*
X179471221Y-109197858D01*
X179471219Y-109197861D01*
X179443171Y-109241384D01*
X179378446Y-109341817D01*
X179375596Y-109349646D01*
X179375596Y-109349647D01*
X179324966Y-109488753D01*
X179317022Y-109510578D01*
X179294514Y-109688753D01*
X147000000Y-109688753D01*
X147000000Y-105488753D01*
X161394514Y-105488753D01*
X161395326Y-105497035D01*
X161395326Y-105497039D01*
X161409522Y-105641817D01*
X161412039Y-105667486D01*
X161414667Y-105675385D01*
X161414667Y-105675387D01*
X161436765Y-105741817D01*
X161468726Y-105837896D01*
X161561759Y-105991512D01*
X161567547Y-105997505D01*
X161567548Y-105997507D01*
X161580448Y-106010865D01*
X161686514Y-106120699D01*
X161836789Y-106219036D01*
X161844599Y-106221941D01*
X161844600Y-106221941D01*
X161897028Y-106241439D01*
X162005116Y-106281636D01*
X162013371Y-106282737D01*
X162013373Y-106282738D01*
X162174875Y-106304287D01*
X162174879Y-106304287D01*
X162183130Y-106305388D01*
X162272555Y-106297250D01*
X162353688Y-106289867D01*
X162353691Y-106289866D01*
X162361981Y-106289112D01*
X162428539Y-106267486D01*
X162524855Y-106236191D01*
X162524858Y-106236190D01*
X162532782Y-106233615D01*
X162687044Y-106141657D01*
X162817099Y-106017807D01*
X162916483Y-105868222D01*
X162934221Y-105821528D01*
X162977298Y-105708125D01*
X162980257Y-105700336D01*
X163005251Y-105522493D01*
X163005565Y-105500000D01*
X163004304Y-105488753D01*
X162986475Y-105329814D01*
X162985546Y-105321528D01*
X162926485Y-105151927D01*
X162831316Y-104999625D01*
X162704770Y-104872193D01*
X162697740Y-104867732D01*
X162697738Y-104867730D01*
X162560169Y-104780426D01*
X162560167Y-104780425D01*
X162553136Y-104775963D01*
X162531948Y-104768418D01*
X162391800Y-104718514D01*
X162391801Y-104718514D01*
X162383951Y-104715719D01*
X162375680Y-104714733D01*
X162375677Y-104714732D01*
X162273368Y-104702533D01*
X162205624Y-104694455D01*
X162197346Y-104695325D01*
X162197344Y-104695325D01*
X162130547Y-104702346D01*
X162027017Y-104713227D01*
X162019139Y-104715909D01*
X162019134Y-104715910D01*
X161915754Y-104751104D01*
X161857007Y-104771103D01*
X161704045Y-104865206D01*
X161698096Y-104871032D01*
X161698093Y-104871034D01*
X161640774Y-104927165D01*
X161575732Y-104990859D01*
X161571221Y-104997858D01*
X161571219Y-104997861D01*
X161565530Y-105006689D01*
X161478446Y-105141817D01*
X161475596Y-105149646D01*
X161475596Y-105149647D01*
X161422177Y-105296416D01*
X161417022Y-105310578D01*
X161394514Y-105488753D01*
X147000000Y-105488753D01*
X147000000Y-102132200D01*
X164898747Y-102132200D01*
X164936129Y-102416149D01*
X165011702Y-102692398D01*
X165023939Y-102721087D01*
X165106077Y-102913655D01*
X165124068Y-102955835D01*
X165189326Y-103064874D01*
X165226585Y-103127128D01*
X165271146Y-103201585D01*
X165450215Y-103425100D01*
X165657962Y-103622245D01*
X165662070Y-103625197D01*
X165662075Y-103625201D01*
X165801324Y-103725261D01*
X165890543Y-103789371D01*
X165895021Y-103791742D01*
X165916694Y-103803217D01*
X166143653Y-103923386D01*
X166148415Y-103925129D01*
X166148418Y-103925130D01*
X166407843Y-104020066D01*
X166407849Y-104020068D01*
X166412610Y-104021810D01*
X166417560Y-104022889D01*
X166417566Y-104022891D01*
X166687491Y-104081744D01*
X166687494Y-104081744D01*
X166692436Y-104082822D01*
X166718826Y-104084899D01*
X166914150Y-104100272D01*
X166914162Y-104100272D01*
X166917053Y-104100500D01*
X167071992Y-104100500D01*
X167179901Y-104093143D01*
X167280678Y-104086273D01*
X167280680Y-104086273D01*
X167285737Y-104085928D01*
X167566186Y-104027850D01*
X167836158Y-103932248D01*
X168015287Y-103839793D01*
X168086152Y-103803217D01*
X168086155Y-103803215D01*
X168090658Y-103800891D01*
X168094805Y-103797976D01*
X168094809Y-103797974D01*
X168320829Y-103639124D01*
X168320833Y-103639121D01*
X168324976Y-103636209D01*
X168534776Y-103441251D01*
X168716177Y-103219623D01*
X168724809Y-103205538D01*
X168823228Y-103044931D01*
X168865820Y-102975427D01*
X168874421Y-102955835D01*
X168970962Y-102735907D01*
X168980938Y-102713182D01*
X169059400Y-102437739D01*
X169099754Y-102154196D01*
X169099830Y-102139839D01*
X169100097Y-102088753D01*
X170594514Y-102088753D01*
X170595326Y-102097035D01*
X170595326Y-102097039D01*
X170611226Y-102259198D01*
X170612039Y-102267486D01*
X170614667Y-102275385D01*
X170614667Y-102275387D01*
X170653296Y-102391512D01*
X170668726Y-102437896D01*
X170761759Y-102591512D01*
X170767547Y-102597505D01*
X170767548Y-102597507D01*
X170776415Y-102606689D01*
X170886514Y-102720699D01*
X170893483Y-102725259D01*
X170893485Y-102725261D01*
X170905388Y-102733050D01*
X171036789Y-102819036D01*
X171044599Y-102821941D01*
X171044600Y-102821941D01*
X171097028Y-102841439D01*
X171205116Y-102881636D01*
X171213371Y-102882737D01*
X171213373Y-102882738D01*
X171374875Y-102904287D01*
X171374879Y-102904287D01*
X171383130Y-102905388D01*
X171472555Y-102897250D01*
X171553688Y-102889867D01*
X171553691Y-102889866D01*
X171561981Y-102889112D01*
X171593927Y-102878732D01*
X171724855Y-102836191D01*
X171724858Y-102836190D01*
X171732782Y-102833615D01*
X171887044Y-102741657D01*
X172017099Y-102617807D01*
X172116483Y-102468222D01*
X172126207Y-102442625D01*
X172161610Y-102349424D01*
X172180257Y-102300336D01*
X172203684Y-102133642D01*
X172214574Y-102107986D01*
X172212221Y-102104952D01*
X172209365Y-102093986D01*
X172485935Y-102093986D01*
X172489384Y-102098562D01*
X172499523Y-102139839D01*
X172510385Y-102250613D01*
X172512039Y-102267486D01*
X172514667Y-102275385D01*
X172514667Y-102275387D01*
X172553296Y-102391512D01*
X172568726Y-102437896D01*
X172661759Y-102591512D01*
X172667547Y-102597505D01*
X172667548Y-102597507D01*
X172676415Y-102606689D01*
X172786514Y-102720699D01*
X172793483Y-102725259D01*
X172793485Y-102725261D01*
X172805388Y-102733050D01*
X172936789Y-102819036D01*
X172944599Y-102821941D01*
X172944600Y-102821941D01*
X172997028Y-102841439D01*
X173105116Y-102881636D01*
X173113371Y-102882737D01*
X173113373Y-102882738D01*
X173274875Y-102904287D01*
X173274879Y-102904287D01*
X173283130Y-102905388D01*
X173372555Y-102897250D01*
X173453688Y-102889867D01*
X173453691Y-102889866D01*
X173461981Y-102889112D01*
X173493927Y-102878732D01*
X173624855Y-102836191D01*
X173624858Y-102836190D01*
X173632782Y-102833615D01*
X173688278Y-102800533D01*
X173762492Y-102779533D01*
X173837264Y-102798453D01*
X173892557Y-102852224D01*
X173913557Y-102926438D01*
X173912397Y-102947188D01*
X173894514Y-103088753D01*
X173895326Y-103097035D01*
X173895326Y-103097039D01*
X173907346Y-103219623D01*
X173912039Y-103267486D01*
X173914667Y-103275385D01*
X173914667Y-103275387D01*
X173940956Y-103354416D01*
X173968726Y-103437896D01*
X174061759Y-103591512D01*
X174067547Y-103597505D01*
X174067548Y-103597507D01*
X174108514Y-103639928D01*
X174186514Y-103720699D01*
X174336789Y-103819036D01*
X174344599Y-103821941D01*
X174344600Y-103821941D01*
X174392603Y-103839793D01*
X174505116Y-103881636D01*
X174513371Y-103882737D01*
X174513373Y-103882738D01*
X174674875Y-103904287D01*
X174674879Y-103904287D01*
X174683130Y-103905388D01*
X174772556Y-103897250D01*
X174853688Y-103889867D01*
X174853691Y-103889866D01*
X174861981Y-103889112D01*
X174893927Y-103878732D01*
X175024855Y-103836191D01*
X175024858Y-103836190D01*
X175032782Y-103833615D01*
X175187044Y-103741657D01*
X175317099Y-103617807D01*
X175416483Y-103468222D01*
X175426729Y-103441251D01*
X175477298Y-103308125D01*
X175480257Y-103300336D01*
X175494746Y-103197243D01*
X175504600Y-103127128D01*
X175504600Y-103127122D01*
X175505251Y-103122493D01*
X175505565Y-103100000D01*
X175504304Y-103088753D01*
X175491592Y-102975427D01*
X175489867Y-102960053D01*
X187140042Y-102960053D01*
X187153535Y-103194071D01*
X187205069Y-103422743D01*
X187207366Y-103428400D01*
X187207368Y-103428406D01*
X187290961Y-103634269D01*
X187293259Y-103639928D01*
X187296448Y-103645132D01*
X187296450Y-103645136D01*
X187389210Y-103796507D01*
X187415736Y-103839793D01*
X187419741Y-103844416D01*
X187419745Y-103844422D01*
X187526252Y-103967377D01*
X187569212Y-104016971D01*
X187749565Y-104166703D01*
X187754835Y-104169782D01*
X187754837Y-104169784D01*
X187946671Y-104281883D01*
X187946675Y-104281885D01*
X187951951Y-104284968D01*
X188170935Y-104368590D01*
X188400637Y-104415323D01*
X188420665Y-104416057D01*
X188628771Y-104423689D01*
X188628774Y-104423689D01*
X188634887Y-104423913D01*
X188867394Y-104394128D01*
X188873259Y-104392368D01*
X188873261Y-104392368D01*
X188952516Y-104368590D01*
X189091914Y-104326768D01*
X189302418Y-104223643D01*
X189381575Y-104167181D01*
X190297235Y-104167181D01*
X190300220Y-104172351D01*
X190486880Y-104281426D01*
X190497891Y-104286701D01*
X190705360Y-104365927D01*
X190717067Y-104369328D01*
X190934704Y-104413606D01*
X190946807Y-104415049D01*
X191168747Y-104423188D01*
X191180938Y-104422634D01*
X191401219Y-104394416D01*
X191413152Y-104391879D01*
X191625870Y-104328060D01*
X191637224Y-104323611D01*
X191836673Y-104225902D01*
X191847138Y-104219663D01*
X191909363Y-104175279D01*
X191919552Y-104162919D01*
X191916677Y-104155230D01*
X191123871Y-103362424D01*
X191110000Y-103354416D01*
X191096129Y-103362424D01*
X190305243Y-104153310D01*
X190297235Y-104167181D01*
X189381575Y-104167181D01*
X189493253Y-104087522D01*
X189613819Y-103967376D01*
X189654962Y-103926377D01*
X189654963Y-103926376D01*
X189659293Y-103922061D01*
X189723138Y-103833211D01*
X189782822Y-103784360D01*
X189858936Y-103771896D01*
X189931085Y-103799158D01*
X189940069Y-103806590D01*
X189946872Y-103804575D01*
X190742576Y-103008871D01*
X190750584Y-102995000D01*
X190742576Y-102981129D01*
X189954985Y-102193538D01*
X189941114Y-102185530D01*
X189920422Y-102197476D01*
X189845922Y-102217438D01*
X189771422Y-102197476D01*
X189720820Y-102149372D01*
X189703279Y-102122258D01*
X189545520Y-101948883D01*
X189402468Y-101835907D01*
X189390397Y-101826374D01*
X190299905Y-101826374D01*
X190303252Y-101834699D01*
X191096129Y-102627576D01*
X191110000Y-102635584D01*
X191123871Y-102627576D01*
X191913196Y-101838251D01*
X191921204Y-101824380D01*
X191916291Y-101815869D01*
X191906084Y-101807808D01*
X191895932Y-101801064D01*
X191701498Y-101693731D01*
X191690378Y-101688733D01*
X191481018Y-101614595D01*
X191469241Y-101611483D01*
X191250586Y-101572535D01*
X191238448Y-101571387D01*
X191016366Y-101568674D01*
X191004218Y-101569523D01*
X190784664Y-101603119D01*
X190772821Y-101605941D01*
X190561702Y-101674946D01*
X190550481Y-101679663D01*
X190353468Y-101782221D01*
X190343163Y-101788710D01*
X190309786Y-101813771D01*
X190299905Y-101826374D01*
X189390397Y-101826374D01*
X189366362Y-101807392D01*
X189361563Y-101803602D01*
X189356210Y-101800647D01*
X189356207Y-101800645D01*
X189196449Y-101712454D01*
X189156348Y-101690317D01*
X188935386Y-101612070D01*
X188929375Y-101610999D01*
X188929370Y-101610998D01*
X188710635Y-101572036D01*
X188704611Y-101570963D01*
X188698496Y-101570888D01*
X188698493Y-101570888D01*
X188605921Y-101569757D01*
X188470221Y-101568099D01*
X188464182Y-101569023D01*
X188464183Y-101569023D01*
X188244548Y-101602632D01*
X188244546Y-101602633D01*
X188238511Y-101603556D01*
X188015704Y-101676381D01*
X187807782Y-101784618D01*
X187802897Y-101788286D01*
X187802895Y-101788287D01*
X187732971Y-101840788D01*
X187620330Y-101925361D01*
X187616106Y-101929781D01*
X187616105Y-101929782D01*
X187601470Y-101945097D01*
X187458382Y-102094830D01*
X187454937Y-102099880D01*
X187454933Y-102099885D01*
X187329732Y-102283422D01*
X187329729Y-102283427D01*
X187326287Y-102288473D01*
X187323714Y-102294016D01*
X187314797Y-102313227D01*
X187227594Y-102501091D01*
X187202699Y-102590859D01*
X187168354Y-102714704D01*
X187164951Y-102726973D01*
X187140042Y-102960053D01*
X175489867Y-102960053D01*
X175485546Y-102921528D01*
X175426485Y-102751927D01*
X175414690Y-102733050D01*
X175342677Y-102617807D01*
X175331316Y-102599625D01*
X175204770Y-102472193D01*
X175197740Y-102467732D01*
X175197738Y-102467730D01*
X175060169Y-102380426D01*
X175060167Y-102380425D01*
X175053136Y-102375963D01*
X175031948Y-102368418D01*
X174949019Y-102338889D01*
X174883951Y-102315719D01*
X174875680Y-102314733D01*
X174875677Y-102314732D01*
X174773368Y-102302533D01*
X174705624Y-102294455D01*
X174697346Y-102295325D01*
X174697344Y-102295325D01*
X174630547Y-102302346D01*
X174527017Y-102313227D01*
X174519139Y-102315909D01*
X174519134Y-102315910D01*
X174420689Y-102349424D01*
X174357007Y-102371103D01*
X174341853Y-102380426D01*
X174312869Y-102398257D01*
X174238956Y-102420292D01*
X174163927Y-102402418D01*
X174107888Y-102349424D01*
X174085853Y-102275511D01*
X174087245Y-102250613D01*
X174104600Y-102127128D01*
X174104600Y-102127122D01*
X174105251Y-102122493D01*
X174105565Y-102100000D01*
X174104986Y-102094830D01*
X174094829Y-102004287D01*
X174085546Y-101921528D01*
X174026485Y-101751927D01*
X174005165Y-101717807D01*
X173940367Y-101614109D01*
X173931316Y-101599625D01*
X173804770Y-101472193D01*
X173797740Y-101467732D01*
X173797738Y-101467730D01*
X173660169Y-101380426D01*
X173660167Y-101380425D01*
X173653136Y-101375963D01*
X173631948Y-101368418D01*
X173491800Y-101318514D01*
X173491801Y-101318514D01*
X173483951Y-101315719D01*
X173475680Y-101314733D01*
X173475677Y-101314732D01*
X173373368Y-101302533D01*
X173305624Y-101294455D01*
X173297346Y-101295325D01*
X173297344Y-101295325D01*
X173230547Y-101302346D01*
X173127017Y-101313227D01*
X173119139Y-101315909D01*
X173119134Y-101315910D01*
X173043504Y-101341657D01*
X172957007Y-101371103D01*
X172804045Y-101465206D01*
X172798096Y-101471032D01*
X172798093Y-101471034D01*
X172682888Y-101583851D01*
X172675732Y-101590859D01*
X172671221Y-101597858D01*
X172671219Y-101597861D01*
X172620617Y-101676381D01*
X172578446Y-101741817D01*
X172575596Y-101749646D01*
X172575596Y-101749647D01*
X172524966Y-101888753D01*
X172517022Y-101910578D01*
X172515978Y-101918842D01*
X172514651Y-101929347D01*
X172499056Y-102052803D01*
X172497403Y-102065885D01*
X172485935Y-102093986D01*
X172209365Y-102093986D01*
X172201507Y-102063820D01*
X172186476Y-101929815D01*
X172186475Y-101929811D01*
X172185546Y-101921528D01*
X172126485Y-101751927D01*
X172105165Y-101717807D01*
X172040367Y-101614109D01*
X172031316Y-101599625D01*
X171904770Y-101472193D01*
X171897740Y-101467732D01*
X171897738Y-101467730D01*
X171760169Y-101380426D01*
X171760167Y-101380425D01*
X171753136Y-101375963D01*
X171731948Y-101368418D01*
X171591800Y-101318514D01*
X171591801Y-101318514D01*
X171583951Y-101315719D01*
X171575680Y-101314733D01*
X171575677Y-101314732D01*
X171473368Y-101302533D01*
X171405624Y-101294455D01*
X171397346Y-101295325D01*
X171397344Y-101295325D01*
X171330547Y-101302346D01*
X171227017Y-101313227D01*
X171219139Y-101315909D01*
X171219134Y-101315910D01*
X171143504Y-101341657D01*
X171057007Y-101371103D01*
X170904045Y-101465206D01*
X170898096Y-101471032D01*
X170898093Y-101471034D01*
X170782888Y-101583851D01*
X170775732Y-101590859D01*
X170771221Y-101597858D01*
X170771219Y-101597861D01*
X170720617Y-101676381D01*
X170678446Y-101741817D01*
X170675596Y-101749646D01*
X170675596Y-101749647D01*
X170624966Y-101888753D01*
X170617022Y-101910578D01*
X170615978Y-101918842D01*
X170615639Y-101921528D01*
X170594514Y-102088753D01*
X169100097Y-102088753D01*
X169100618Y-101989112D01*
X169101253Y-101867800D01*
X169063871Y-101583851D01*
X168988298Y-101307602D01*
X168875932Y-101044165D01*
X168765589Y-100859795D01*
X168731453Y-100802757D01*
X168731450Y-100802753D01*
X168728854Y-100798415D01*
X168640998Y-100688753D01*
X173794514Y-100688753D01*
X173795326Y-100697035D01*
X173795326Y-100697039D01*
X173810513Y-100851927D01*
X173812039Y-100867486D01*
X173814667Y-100875385D01*
X173814667Y-100875387D01*
X173866097Y-101029993D01*
X173868726Y-101037896D01*
X173961759Y-101191512D01*
X173967547Y-101197505D01*
X173967548Y-101197507D01*
X173974482Y-101204687D01*
X174086514Y-101320699D01*
X174236789Y-101419036D01*
X174244599Y-101421941D01*
X174244600Y-101421941D01*
X174297028Y-101441439D01*
X174405116Y-101481636D01*
X174413371Y-101482737D01*
X174413373Y-101482738D01*
X174574875Y-101504287D01*
X174574879Y-101504287D01*
X174583130Y-101505388D01*
X174672555Y-101497250D01*
X174753688Y-101489867D01*
X174753691Y-101489866D01*
X174761981Y-101489112D01*
X174882355Y-101450000D01*
X174924855Y-101436191D01*
X174924858Y-101436190D01*
X174932782Y-101433615D01*
X175087044Y-101341657D01*
X175217099Y-101217807D01*
X175316483Y-101068222D01*
X175325622Y-101044165D01*
X175377298Y-100908125D01*
X175380257Y-100900336D01*
X175394581Y-100798415D01*
X175404600Y-100727128D01*
X175404600Y-100727122D01*
X175405251Y-100722493D01*
X175405565Y-100700000D01*
X175404861Y-100693716D01*
X175391892Y-100578102D01*
X175385546Y-100521528D01*
X175331818Y-100367242D01*
X175329225Y-100359795D01*
X175329225Y-100359794D01*
X175326485Y-100351927D01*
X175231316Y-100199625D01*
X175104770Y-100072193D01*
X175097740Y-100067732D01*
X175097738Y-100067730D01*
X174960169Y-99980426D01*
X174960167Y-99980425D01*
X174953136Y-99975963D01*
X174931948Y-99968418D01*
X174791800Y-99918514D01*
X174791801Y-99918514D01*
X174783951Y-99915719D01*
X174775680Y-99914733D01*
X174775677Y-99914732D01*
X174673368Y-99902533D01*
X174605624Y-99894455D01*
X174597346Y-99895325D01*
X174597344Y-99895325D01*
X174530547Y-99902346D01*
X174427017Y-99913227D01*
X174419139Y-99915909D01*
X174419134Y-99915910D01*
X174315754Y-99951104D01*
X174257007Y-99971103D01*
X174104045Y-100065206D01*
X174098096Y-100071032D01*
X174098093Y-100071034D01*
X173981682Y-100185032D01*
X173975732Y-100190859D01*
X173971221Y-100197858D01*
X173971219Y-100197861D01*
X173932505Y-100257934D01*
X173878446Y-100341817D01*
X173875596Y-100349646D01*
X173875596Y-100349647D01*
X173850531Y-100418514D01*
X173817022Y-100510578D01*
X173794514Y-100688753D01*
X168640998Y-100688753D01*
X168549785Y-100574900D01*
X168342038Y-100377755D01*
X168337930Y-100374803D01*
X168337925Y-100374799D01*
X168113569Y-100213584D01*
X168109457Y-100210629D01*
X168087700Y-100199109D01*
X167860829Y-100078987D01*
X167860828Y-100078986D01*
X167856347Y-100076614D01*
X167851585Y-100074871D01*
X167851582Y-100074870D01*
X167592157Y-99979934D01*
X167592151Y-99979932D01*
X167587390Y-99978190D01*
X167582440Y-99977111D01*
X167582434Y-99977109D01*
X167312509Y-99918256D01*
X167312506Y-99918256D01*
X167307564Y-99917178D01*
X167257363Y-99913227D01*
X167085850Y-99899728D01*
X167085838Y-99899728D01*
X167082947Y-99899500D01*
X166928008Y-99899500D01*
X166820099Y-99906857D01*
X166719322Y-99913727D01*
X166719320Y-99913727D01*
X166714263Y-99914072D01*
X166433814Y-99972150D01*
X166163842Y-100067752D01*
X166142075Y-100078987D01*
X165913848Y-100196783D01*
X165913845Y-100196785D01*
X165909342Y-100199109D01*
X165905195Y-100202024D01*
X165905191Y-100202026D01*
X165679171Y-100360876D01*
X165679167Y-100360879D01*
X165675024Y-100363791D01*
X165465224Y-100558749D01*
X165283823Y-100780377D01*
X165281174Y-100784700D01*
X165281171Y-100784704D01*
X165225601Y-100875387D01*
X165134180Y-101024573D01*
X165132147Y-101029204D01*
X165132144Y-101029210D01*
X165065736Y-101180492D01*
X165019062Y-101286818D01*
X164940600Y-101562261D01*
X164900246Y-101845804D01*
X164900220Y-101850866D01*
X164900219Y-101850873D01*
X164899809Y-101929347D01*
X164898747Y-102132200D01*
X147000000Y-102132200D01*
X147000000Y-101188753D01*
X161394514Y-101188753D01*
X161395326Y-101197035D01*
X161395326Y-101197039D01*
X161411226Y-101359199D01*
X161412039Y-101367486D01*
X161414667Y-101375385D01*
X161414667Y-101375387D01*
X161445385Y-101467730D01*
X161468726Y-101537896D01*
X161561759Y-101691512D01*
X161567547Y-101697505D01*
X161567548Y-101697507D01*
X161587152Y-101717807D01*
X161686514Y-101820699D01*
X161693483Y-101825259D01*
X161693485Y-101825261D01*
X161725063Y-101845925D01*
X161836789Y-101919036D01*
X161844599Y-101921941D01*
X161844600Y-101921941D01*
X161897028Y-101941439D01*
X162005116Y-101981636D01*
X162013371Y-101982737D01*
X162013373Y-101982738D01*
X162174875Y-102004287D01*
X162174879Y-102004287D01*
X162183130Y-102005388D01*
X162272556Y-101997250D01*
X162353688Y-101989867D01*
X162353691Y-101989866D01*
X162361981Y-101989112D01*
X162447208Y-101961420D01*
X162524855Y-101936191D01*
X162524858Y-101936190D01*
X162532782Y-101933615D01*
X162687044Y-101841657D01*
X162817099Y-101717807D01*
X162866192Y-101643917D01*
X162911873Y-101575161D01*
X162911874Y-101575159D01*
X162916483Y-101568222D01*
X162920604Y-101557375D01*
X162967615Y-101433615D01*
X162980257Y-101400336D01*
X162995015Y-101295325D01*
X163004600Y-101227128D01*
X163004600Y-101227122D01*
X163005251Y-101222493D01*
X163005565Y-101200000D01*
X163004304Y-101188753D01*
X162991562Y-101075161D01*
X162985546Y-101021528D01*
X162926485Y-100851927D01*
X162879321Y-100776448D01*
X162848502Y-100727128D01*
X162831316Y-100699625D01*
X162704770Y-100572193D01*
X162697740Y-100567732D01*
X162697738Y-100567730D01*
X162560169Y-100480426D01*
X162560167Y-100480425D01*
X162553136Y-100475963D01*
X162531948Y-100468418D01*
X162391800Y-100418514D01*
X162391801Y-100418514D01*
X162383951Y-100415719D01*
X162375680Y-100414733D01*
X162375677Y-100414732D01*
X162273368Y-100402533D01*
X162205624Y-100394455D01*
X162197346Y-100395325D01*
X162197344Y-100395325D01*
X162130547Y-100402346D01*
X162027017Y-100413227D01*
X162019139Y-100415909D01*
X162019134Y-100415910D01*
X161915754Y-100451104D01*
X161857007Y-100471103D01*
X161841853Y-100480426D01*
X161714541Y-100558749D01*
X161704045Y-100565206D01*
X161698096Y-100571032D01*
X161698093Y-100571034D01*
X161589716Y-100677165D01*
X161575732Y-100690859D01*
X161571221Y-100697858D01*
X161571219Y-100697861D01*
X161518041Y-100780377D01*
X161478446Y-100841817D01*
X161475596Y-100849646D01*
X161475596Y-100849647D01*
X161460150Y-100892086D01*
X161417022Y-101010578D01*
X161394514Y-101188753D01*
X147000000Y-101188753D01*
X147000000Y-100005316D01*
X147000380Y-99994687D01*
X147006268Y-99912357D01*
X147019597Y-99725996D01*
X147022619Y-99704970D01*
X147078749Y-99446945D01*
X147084737Y-99426553D01*
X147177013Y-99179151D01*
X147185845Y-99159813D01*
X147312386Y-98928072D01*
X147323879Y-98910188D01*
X147482113Y-98698812D01*
X147496035Y-98682745D01*
X147635139Y-98543641D01*
X147701934Y-98505077D01*
X147740498Y-98500000D01*
X193259502Y-98500000D01*
X193334002Y-98519962D01*
G37*
%TD.AperFunction*%
%TD*%
M02*
