%TF.GenerationSoftware,KiCad,Pcbnew,(6.0.0)*%
%TF.CreationDate,2024-01-04T18:13:25+01:00*%
%TF.ProjectId,Differential_Probe_v1r1,44696666-6572-4656-9e74-69616c5f5072,rev?*%
%TF.SameCoordinates,Original*%
%TF.FileFunction,Soldermask,Bot*%
%TF.FilePolarity,Negative*%
%FSLAX46Y46*%
G04 Gerber Fmt 4.6, Leading zero omitted, Abs format (unit mm)*
G04 Created by KiCad (PCBNEW (6.0.0)) date 2024-01-04 18:13:25*
%MOMM*%
%LPD*%
G01*
G04 APERTURE LIST*
G04 Aperture macros list*
%AMRoundRect*
0 Rectangle with rounded corners*
0 $1 Rounding radius*
0 $2 $3 $4 $5 $6 $7 $8 $9 X,Y pos of 4 corners*
0 Add a 4 corners polygon primitive as box body*
4,1,4,$2,$3,$4,$5,$6,$7,$8,$9,$2,$3,0*
0 Add four circle primitives for the rounded corners*
1,1,$1+$1,$2,$3*
1,1,$1+$1,$4,$5*
1,1,$1+$1,$6,$7*
1,1,$1+$1,$8,$9*
0 Add four rect primitives between the rounded corners*
20,1,$1+$1,$2,$3,$4,$5,0*
20,1,$1+$1,$4,$5,$6,$7,0*
20,1,$1+$1,$6,$7,$8,$9,0*
20,1,$1+$1,$8,$9,$2,$3,0*%
G04 Aperture macros list end*
%ADD10C,6.400000*%
%ADD11C,0.800000*%
%ADD12C,3.200000*%
%ADD13C,0.700000*%
%ADD14C,4.400000*%
%ADD15RoundRect,0.400000X-0.400000X0.400000X-0.400000X-0.400000X0.400000X-0.400000X0.400000X0.400000X0*%
%ADD16O,2.400000X0.900000*%
%ADD17O,1.700000X0.900000*%
%ADD18R,1.850000X1.850000*%
%ADD19C,1.850000*%
G04 APERTURE END LIST*
D10*
%TO.C,H4*%
X207000000Y-118000000D03*
D11*
X209400000Y-118000000D03*
X208697056Y-119697056D03*
X207000000Y-120400000D03*
X205302944Y-119697056D03*
X204600000Y-118000000D03*
X205302944Y-116302944D03*
X207000000Y-115600000D03*
X208697056Y-116302944D03*
%TD*%
D12*
%TO.C,H2*%
X167000000Y-134000000D03*
%TD*%
%TO.C,H1*%
X167000000Y-102000000D03*
%TD*%
D13*
%TO.C,J1*%
X112733274Y-104666726D03*
X113900000Y-101850000D03*
X112250000Y-103500000D03*
X115066726Y-102333274D03*
X115550000Y-103500000D03*
X115066726Y-104666726D03*
D14*
X113900000Y-103500000D03*
D13*
X113900000Y-105150000D03*
X112733274Y-102333274D03*
%TD*%
D15*
%TO.C,J3*%
X198482500Y-131690000D03*
D12*
X206282500Y-127890000D03*
X206282500Y-135490000D03*
%TD*%
D16*
%TO.C,P1*%
X205855000Y-99675000D03*
X205855000Y-108325000D03*
D17*
X209235000Y-99675000D03*
X209235000Y-108325000D03*
D13*
X206225000Y-106975000D03*
X206225000Y-106125000D03*
X206225000Y-105275000D03*
X206225000Y-104425000D03*
X206225000Y-103575000D03*
X206225000Y-102725000D03*
X206225000Y-101875000D03*
X206225000Y-101025000D03*
X204875000Y-101025000D03*
X204875000Y-101875000D03*
X204875000Y-102725000D03*
X204875000Y-103575000D03*
X204875000Y-104425000D03*
X204875000Y-105275000D03*
X204875000Y-106125000D03*
X204875000Y-106975000D03*
%TD*%
D11*
%TO.C,H3*%
X154000000Y-115600000D03*
X152302944Y-119697056D03*
D10*
X154000000Y-118000000D03*
D11*
X155697056Y-119697056D03*
X154000000Y-120400000D03*
X151600000Y-118000000D03*
X155697056Y-116302944D03*
X156400000Y-118000000D03*
X152302944Y-116302944D03*
%TD*%
D13*
%TO.C,J2*%
X112350000Y-132500000D03*
X115166726Y-131333274D03*
X114000000Y-130850000D03*
X112833274Y-133666726D03*
D14*
X114000000Y-132500000D03*
D13*
X114000000Y-134150000D03*
X115650000Y-132500000D03*
X115166726Y-133666726D03*
X112833274Y-131333274D03*
%TD*%
D18*
%TO.C,PS1*%
X201270000Y-102995000D03*
D19*
X198730000Y-102995000D03*
X193650000Y-102995000D03*
X191110000Y-102995000D03*
X188570000Y-102995000D03*
%TD*%
M02*
